<svg xmlns="http://www.w3.org/2000/svg" viewBox="0 0 810.61 216.04"><defs><style>.cls-1{fill:#e30224;}</style></defs><title>coto</title><g id="Capa_2" data-name="Capa 2"><g id="Capa_1-2" data-name="Capa 1"><path class="cls-1" d="M84.11.73c-7.1,1.6-9.6,2.6-13.8,5.4-7.9,5.2-10.8,10.4-17.7,31.4-3.4,10.4-12.2,37.2-19.5,59.5s-15,45.7-17.1,52-6.6,20.3-10.1,31c-7.6,23.1-7.7,25.6-1.3,31.4,2.2,2,5,3.8,6.2,4.1s33.4.4,71.3.3l69-.3,4.5-2.4c5.2-2.7,12.5-9.4,14.5-13.2.8-1.5,6.4-17.9,12.6-36.5s14.1-43.1,17.9-54.4c33.7-102.3,32-95.7,26.4-102.6a17.53,17.53,0,0,0-6.5-5c-2.6-1-19.1-1.2-68.9-1.2C115.61.23,85.21.43,84.11.73ZM202,23.93a7.53,7.53,0,0,1,2.6,5.5c-.1,4.2-8,26.9-10.5,30-4.5,5.5-5,5.6-43.2,5.6-19.3,0-36.3.4-37.6.9-6.4,2.4-7.7,5.3-19.1,39.7-6,18.1-11.1,34.7-11.3,36.9-.4,3.3-.1,4.4,1.9,6.2,2.3,2.2,2.8,2.2,37.7,2.5l35.3.3,2.4,3c1.3,1.6,2.4,3.7,2.4,4.5s-1.9,7.3-4.2,14.4c-4.3,13.5-7.3,18.3-12.6,20.5-2,.9-17.4,1.1-55.9.9-52-.3-53.2-.3-56-2.4a17.51,17.51,0,0,1-4.5-5.5c-3.5-6.7-4.5-2.8,25.7-94.9,18.1-55.3,18.9-57.2,27.7-64.3a36.52,36.52,0,0,1,9-4.8c4.9-1.7,9-1.8,56.5-1.6l51.1.2Z"/><path class="cls-1" d="M273.31,1.43c-6.2,1.7-14,7.1-17.7,12.3-1.8,2.5-5.3,10.7-8.4,20-2.9,8.7-5.6,16.5-5.9,17.3s-4.5,13.6-9.2,28.5c-8.7,26.8-16.7,51.2-31,94.5-8.3,25-9,29.5-5.2,35.1,4.8,7.2,1.5,6.9,76.4,6.9,66,0,67.4,0,73.8-2.1,3.6-1.2,6.5-2.6,6.5-3a.92.92,0,0,1,1-.9c3.3,0,9.9-9.1,12.8-17.5,2.8-8.2,23.3-70.5,38.7-118,7-21.5,14-42.8,15.6-47.5s2.9-10.3,2.9-12.4c0-5.2-3.3-10.1-8.6-12.6-3.9-1.9-6.2-2-70.5-1.9C293.91.13,277,.43,273.31,1.43Zm115.3,21.8c9.2,6.3,9.5,11.6,2.2,33.3-2.8,8.2-11,33.2-18.2,55.5-18,55-20,60.9-22.2,65.3-2.7,5.4-9.4,11.8-15.3,14.8l-5,2.4-47.5.3c-52.4.3-53.7.2-58-5.8-4.1-5.8-3.7-10.8,2.3-29,3-9.1,11.2-34.1,18.2-55.5,16.3-50.1,20.4-62.2,22.6-66.5,2.5-4.9,9.4-11.2,15.8-14.4L289,21h96.3Z"/><path class="cls-1" d="M307.11,65.73c-5.1,1.3-7.9,6.5-15.3,28.9-13.1,39.9-15.2,46.8-15.2,49.1a8,8,0,0,0,2.5,4.8c2.3,2.4,2.9,2.5,15.8,2.5s13.5-.1,17.5-2.7a20.06,20.06,0,0,0,6.2-6.8c3.2-6.4,22-65.5,22-69.2a7.86,7.86,0,0,0-2-5.3c-1.8-1.8-3.2-2-15.7-1.9C315.31,65.23,308.21,65.53,307.11,65.73Z"/><path class="cls-1" d="M466.11,1.43A30.19,30.19,0,0,0,453,9.13c-5.6,5.1-6.7,7.5-14,29.6-3.5,10.9-11.2,34-16.9,51.3-33.4,101.4-35.8,109.1-35.1,112.8.6,4.1,2.9,7.6,7,10.6,2.7,2.1,3.6,2.1,72.4,2.1h69.7l5.9-2.8a32,32,0,0,0,15.8-15.8c1.5-3,6.6-17.6,11.4-32.4s13.5-41.6,19.4-59.5c30-90.9,29.3-88.7,28.2-93-1.2-5-4.8-9.4-8.8-10.9C603.41-.57,471.61-.27,466.11,1.43Zm121.2,21.8a19,19,0,0,1,2.7,4.1c.3,1-1.2,8.2-3.5,16-3.4,12.1-4.6,14.7-7.5,17.7l-3.4,3.5-18.1.5c-18.1.5-18.1.5-20.4,3.2-2,2.4-9.1,23-34.9,102.3-3.1,9.3-6.3,18.1-7.2,19.4-3.2,4.5-8.8,6.1-21.6,6.1-13.2,0-16-.8-18.3-5.5-1.5-3.2-1.3-3.8,3.9-19.7,26.7-81,32.6-99.3,32.6-101.3a4.42,4.42,0,0,0-1.9-3.5c-1.1-.5-8.4-1-16.6-1-14.2,0-14.7-.1-17-2.5a7.86,7.86,0,0,1-2.5-4.6c0-2.5,7.5-26,9.6-30a16.54,16.54,0,0,1,4-4.8c2.6-2.1,3.4-2.1,60.4-2.1h57.7Z"/><path class="cls-1" d="M661.11,1.13c-7.6,1.7-15.4,7.3-20.2,14.4-1.1,1.6-7.3,19.2-13.7,39s-14.8,45.2-18.6,56.5c-14,42.5-27.8,85.6-28.4,88.6-.8,5,2.9,11.4,8.4,14.1L593,216h66.2c63.5,0,66.5-.1,72.7-2,7.1-2.2,15.5-8.7,18.4-14.4.9-1.7,5.3-14.4,9.8-28.1s14.6-44.4,22.3-68,17.3-52.6,21.2-64.4,7-23,7-24.8c0-3.7-1.2-6.5-4.1-9.6-4.4-4.8-2.8-4.7-74.3-4.6C695.31.23,663.31.63,661.11,1.13Zm113.4,21.7c4.8,2.4,7.3,6.2,7.9,12,.4,4.3-1.2,10-12.8,45.3-7.3,22.2-17.3,52.8-22.2,67.9s-10,29.1-11.3,31a40.76,40.76,0,0,1-14.3,13.1l-4.7,2.4-45,.3c-24.7.2-47.5,0-50.5-.3-4.7-.6-6.1-1.3-9.2-4.6-3.5-3.7-3.8-4.4-3.8-9.9a38.12,38.12,0,0,1,1.9-11.2c1.1-2.9,8.6-25.6,16.6-50.3,24.4-74.7,25.5-77.8,28.7-82.7,3.3-5.3,10.6-11.1,16.5-13.3,3-1.1,13.1-1.4,51.3-1.4C766.91,21,771.41,21.23,774.51,22.83Z"/><path class="cls-1" d="M693.61,65.73a22.31,22.31,0,0,0-4.7,3.6c-2.8,2.6-4.4,6.7-12.3,31.1-5,15.5-10,30.7-11.1,33.9-3.3,9.9-2.2,14.8,3.6,16.3,1.3.3,7.9.4,14.7.2,11.3-.3,12.8-.5,16.1-2.8a16.33,16.33,0,0,0,5.6-7c3.4-8.1,22.1-66.5,22.1-69a8.19,8.19,0,0,0-1.6-4.5c-1.3-1.8-2.8-2-16.2-2.2C701.71,65.23,694.41,65.33,693.61,65.73Z"/></g></g></svg>