<svg id="Capa_1" data-name="Capa 1" xmlns="http://www.w3.org/2000/svg" viewBox="0 0 170.29 121.45"><defs><style>.cls-1{fill:#f58220;}</style></defs><title>iconos</title><path id="Trazado_2317" data-name="Trazado 2317" class="cls-1" d="M.86,110.21A15.86,15.86,0,0,0,17.6,121.37h136a16.17,16.17,0,0,0,16-11.35,16.54,16.54,0,0,0-6.75-18.28L90,49V44.23c0-2.51,2.23-4,4.82-5.76a21.4,21.4,0,0,0,7.17-6.8,20.58,20.58,0,0,0,2.89-11.11C104.85,15.07,100,0,84.3,0A20.77,20.77,0,0,0,63,19.54a6.11,6.11,0,0,0,5.82,6.37c2.17,0,4.62-1.54,5-5.86A9.73,9.73,0,0,1,84.16,11h0a10.11,10.11,0,0,1,4.16,19.1,14,14,0,0,0-8.74,11.43v7.44l-.19.12-72,42.51a16,16,0,0,0-6.58,18.6m13.61-9.63L85.26,59.13l.2.11,70.93,41.43a4.8,4.8,0,0,1,2.21,5.55,5.32,5.32,0,0,1-5,3.94H17.43a5.41,5.41,0,0,1-5.2-3.72,5.26,5.26,0,0,1,2.24-6"/></svg>