<svg id="Capa_1" data-name="Capa 1" xmlns="http://www.w3.org/2000/svg" viewBox="0 0 111.25 162.11"><defs><style>.cls-1{fill:#f58220;}</style></defs><title>iconos</title><g id="Group_739" data-name="Group 739"><g id="Group_469" data-name="Group 469"><path id="Path_261" data-name="Path 261" class="cls-1" d="M38.61,62.38a13.65,13.65,0,0,1-4.23,10.44,18.84,18.84,0,0,1-10.14,4.54l-.48-.1h-.45a15.3,15.3,0,0,1-15.57-15V4.14H0v58A25.59,25.59,0,0,0,9.58,80.84v75.91a5.34,5.34,0,0,0,5.34,5.34H31.6a5.34,5.34,0,0,0,5.33-5.34V80.55c.45-.31.93-.55,1.35-.9a21.26,21.26,0,0,0,8-17.29V4.14H38.6Zm-9.42,92H17.3v-70a26.5,26.5,0,0,0,5.54.62h.26c.34,0,.67,0,1,.06a20.91,20.91,0,0,0,5.09-.9Z"/><rect id="Rectangle_1171" data-name="Rectangle 1171" class="cls-1" x="19.38" y="4.14" width="7.75" height="57.27"/><path id="Path_262" data-name="Path 262" class="cls-1" d="M111.2,72.29V22.87A22.86,22.86,0,0,0,88.36,0h-.27A24.18,24.18,0,0,0,72.88,5.34a21.3,21.3,0,0,0-8.06,17.29V80.3a5.34,5.34,0,0,0,5.34,5.33H83.88v71.14a5.35,5.35,0,0,0,5.33,5.34h16.7a5.34,5.34,0,0,0,5.34-5.34V72.29ZM91.65,154.35V83.22a5.34,5.34,0,0,0-5.33-5.34H72.6V22.62a13.72,13.72,0,0,1,4.21-10.45A18.93,18.93,0,0,1,87,7.64l.48.1h.47a15.33,15.33,0,0,1,15.56,15.09v58h0v73.48Z"/></g></g></svg>