<svg xmlns="http://www.w3.org/2000/svg" viewBox="0 0 473.84 167.54"><defs><style>.cls-1{fill:#002d19;}</style></defs><title>patagonia</title><g id="Capa_2" data-name="Capa 2"><g id="Capa_1-2" data-name="Capa 1"><path class="cls-1" d="M237,.13c-.8.3-6.8,5.6-13.2,11.8L212,23.33H200.1L191.5,31c-4.8,4.3-9.1,7.9-9.6,8.1s-4.5-2.2-8.9-5.3-8.4-5.5-9-5.3c-2.6.9-47,37.2-46.7,38.1.2.7,3.2,1.3,7.4,1.5l7.1.3,11.9-9.7c6.5-5.4,13.6-11.2,15.7-13.1s4.6-3.3,5.3-3.3c1.5,0,9,4.9,11.7,7.6.9.9,1.6,3.2,1.6,5.5s.5,3.9,1.2,3.9,5.9-5,11.8-11.2c6.7-7,11.1-10.9,11.8-10.4s1.2,2.2,1.2,4.1.4,3.6.9,3.9,7.9-6.6,16.5-15.4,16-16,16.4-16,5.6,4.8,11.5,10.8L260,35.83v5.3c0,7.6,1.8,7.8,8.9.8,3.1-3.1,6.3-5.6,7-5.6s3.5,1.6,6.1,3.5,5.3,3.5,5.9,3.5,1.1-2.9,1.1-8.4c0-4.7.4-8.7.9-9s12.8,9,27.3,20.9l26.3,21.4,7.3.1c6.7,0,7.3-.2,7-1.9-.3-2-67.1-56.1-69.2-56.1-.6,0-4.9,3.8-9.6,8.5s-9,8.5-9.7,8.5-5.9-4.4-11.5-9.7C239.4.23,238.5-.47,237,.13Z"/><path class="cls-1" d="M225.2,89.13c-6.8,2.5-11.7,7.2-13.9,13.6s-2.5,26.7-.4,33.8c1.9,6.5,7,12.2,12.8,14.2,8.6,3,26.2,1.6,29.7-2.3,1.2-1.3,1.6-5,1.8-16.6.2-8.3.7-15.8,1.2-16.8.7-1.6,0-1.7-8.3-1.7h-9.2l1.5,2.2c1.2,1.7,1.6,4.9,1.6,13v10.8l-2.7.6c-3.7,1-10.2-1.5-12.7-4.9-3-4-3.6-22.5-.9-27.7,3.2-6.2,11.4-8.5,20.7-5.9,2.1.6,4.2.7,4.6.2s1.1-2.9,1.5-5.5c.7-4.5.6-4.7-2.6-6.3C244.8,87.13,231.8,86.83,225.2,89.13Z"/><path class="cls-1" d="M283.8,88.33c-5.9,1.7-9.7,5.1-12.5,10.8-2.6,5.2-2.8,6.9-3.1,18.9-.5,16.9,1,22.9,7.3,28.9,9.5,9.2,28.5,8.2,35.1-1.9,4-6.1,4.9-10.6,4.9-24.2,0-15.5-1.7-21.7-7.5-27.5C302.7,88,292,85.83,283.8,88.33Zm13,14c3.2,3,4.4,9.3,4,21-.2,8-.8,11.3-2.1,13.3-3.3,5.1-10.5,4.8-13.7-.5-2.5-4.2-3.5-14.7-2.2-23.8.8-6.1,1.5-7.9,3.7-9.7C289.7,99.83,293.9,99.73,296.8,102.33Z"/><path class="cls-1" d="M0,89a15.72,15.72,0,0,0,1.5,3.3c1.2,2,1.4,8.8,1.5,36,0,29.3-.2,33.8-1.6,35.9-.9,1.2-1.2,2.6-.8,3.1.9.7,16.3-.5,19.3-1.5,1.1-.4,1-1-.3-3-1.1-1.7-1.6-4.8-1.6-10.3v-7.9l5.8-.5c8.8-.8,14.3-2.9,18.2-6.8,4.7-4.7,6.5-11,6.5-22.5,0-15.3-4.8-23.1-15.5-25.4C27.3,88.23,0,87.93,0,89Zm30.9,17.9c1.6,2,2.1,4.1,2.1,8.5,0,10-1.8,12.4-10.5,13.5l-4.5.7v-25.3h5.4C28.1,104.33,29.1,104.73,30.9,106.93Z"/><path class="cls-1" d="M66.1,90.53c-.5,1.3-4.1,16.2-8,33.3s-7.9,32.3-8.8,33.9l-1.6,2.9,9.8-.6a83.81,83.81,0,0,0,10.2-1.1c.2-.2-.1-1.3-.8-2.3-1.2-2-.5-10.8.9-11.7a48.46,48.46,0,0,1,8.2-.7l7.4-.4,1,3.9c.6,2.7.5,4.5-.3,5.8a8,8,0,0,0-1.1,2.6c0,.9,13.2.6,17.8-.4,2.1-.4,2.2-.7,1-2.1-.7-.9-4.9-15.8-9.3-33.2l-8-31.6-8.8-.3C67.4,88.23,66.9,88.33,66.1,90.53Zm12.4,27.1c1.4,6.4,2.5,11.9,2.5,12.1s-2.5.6-5.5.8-5.5,0-5.5-.5,1.1-5.9,2.5-12.3,2.5-11.8,2.5-12.1C75,103.13,76.3,107.73,78.5,117.63Z"/><path class="cls-1" d="M104.7,88.93c-.4.4-.7,4.3-.7,8.7v7.9l2.5-1.6c1.4-.9,4.5-1.6,7.5-1.6h5v23.8c0,19.9-.3,24.1-1.6,26-.8,1.2-1.2,2.2-.7,2.3,2.3.3,17.9-.4,18.6-.8.4-.2,0-1.4-.8-2.6-1.2-1.8-1.5-6.3-1.5-25.4v-23.3h5.9c3.3,0,6.3.4,6.6,1,1.7,2.8,2.6.4,2.3-6.8l-.3-7.7-21.1-.3C114.9,88.43,105.1,88.63,104.7,88.93Z"/><path class="cls-1" d="M166.6,93c-.8,2.7-4.5,16.3-8.1,30.3s-7,25.9-7.6,26.4a4.14,4.14,0,0,0-.9,2.3c0,1,2.1,1.3,8.3,1.3,9.5,0,11.5-.8,9.7-3.6-.8-1.3-.9-3-.3-5.4l.9-3.5,8.2-.3,8.1-.3.7,3.7c.4,2.3.2,4.4-.5,5.5a10.16,10.16,0,0,0-1.1,2.4c0,.7,18.5.6,19.3-.1.3-.4,0-1.6-.7-2.8s-4.6-14.7-8.6-30.1-7.7-28.6-8.3-29.3-3.8-1.2-9.2-1.2h-8.3Z"/><path class="cls-1" d="M326,89.73a2.82,2.82,0,0,0,1,2.1c.6.4,1,11.2,1,29s-.4,28.6-1,29a2.56,2.56,0,0,0-1,1.9c0,.9,2.7,1.5,9.1,2,5,.4,9.4.5,9.6.2s-.2-1.5-1.1-2.8c-1.3-1.8-1.6-5.1-1.6-17.7,0-8.5.3-15.2.6-14.8s4.1,8.1,8.4,17.2,8.3,17.2,9,18c.9,1.1,3.3,1.5,8.6,1.5,4.1,0,7.4-.2,7.4-.4a21.66,21.66,0,0,0-1.5-3.2c-2.2-4.2-2.2-57.1,0-60A6.78,6.78,0,0,0,376,89c0-.4-4.3-.7-9.5-.7-7.6,0-9.5.3-9.5,1.4a2.82,2.82,0,0,0,1,2.1c.6.4,1,7.1,1,16.8l-.1,16.2-4.2-9c-2.3-5-6.2-13.1-8.7-18l-4.5-9-7.7-.3C327.4,88.33,326,88.53,326,89.73Z"/><path class="cls-1" d="M388.6,89.23c-.3.5.1,1.4.9,2.1,1.3,1.1,1.5,5.9,1.5,31.6,0,22.1-.3,31-1.2,32.4-.7,1-1,2.1-.8,2.3a72.44,72.44,0,0,0,9.8,1c6.9.4,9.2.3,9.2-.7a4.14,4.14,0,0,0-.9-2.2c-.5-.5-1.3-14.2-1.6-30.4-.7-26.3-.6-29.9.9-32.7a18.1,18.1,0,0,0,1.6-3.8C408,87.93,389.2,88.23,388.6,89.23Z"/><path class="cls-1" d="M435.6,89.13c-.2.4-4.1,15.8-8.6,34.1s-8.8,34.4-9.7,35.7c-1.4,2.2-1.3,2.3.9,2.8a101.83,101.83,0,0,0,10.6,1.1c8.6.7,9.3.3,7-3.4-.8-1.3-.9-2.9-.2-5.2l1-3.4h8.1c4.5,0,8.5.3,8.9.8,1,1,1.1,10.8.1,12.8-.7,1.4.5,1.8,9,2.6,10.1,1,12.6.5,10.4-2.1-.7-.8-4.8-17.4-9.2-36.8s-8.3-36.3-8.9-37.6c-.9-2-1.6-2.2-9.9-2.2C440.2,88.33,435.9,88.73,435.6,89.13ZM451,134c0,.9-1.9,1.3-6.1,1.3-5.3,0-6-.2-5.5-1.8.2-.9,1.4-6.7,2.6-12.7,3.2-16.4,3.1-16.4,6.1-1.5C449.7,126.73,450.9,133.43,451,134Z"/></g></g></svg>