<svg id="Capa_1" data-name="Capa 1" xmlns="http://www.w3.org/2000/svg" viewBox="0 0 95 121.45"><defs><style>.cls-1{fill:#f58220;}</style></defs><title>tnedor</title><g id="Group_739" data-name="Group 739"><g id="Group_469" data-name="Group 469"><path id="Path_261" data-name="Path 261" class="cls-1" d="M34.9,47.61a9.58,9.58,0,0,1-3,7.33,13.17,13.17,0,0,1-7.12,3.19l-.34-.07h-.31A10.75,10.75,0,0,1,13.22,47.53V6.71H7.79V47.44a18,18,0,0,0,6.73,13.13v53.31a3.74,3.74,0,0,0,3.75,3.75H30a3.74,3.74,0,0,0,3.74-3.75V60.37c.32-.22.65-.39,1-.63A15,15,0,0,0,40.29,47.6V6.71h-5.4Zm-6.61,64.61H19.94V63.06a18.78,18.78,0,0,0,3.89.44H24a4.05,4.05,0,0,1,.7,0,14.93,14.93,0,0,0,3.58-.63Z"/><rect id="Rectangle_1171" data-name="Rectangle 1171" class="cls-1" x="21.4" y="6.71" width="5.44" height="40.22"/><path id="Path_262" data-name="Path 262" class="cls-1" d="M85.88,54.57V19.86a16.06,16.06,0,0,0-16-16.06h-.19A17,17,0,0,0,59,7.55,15,15,0,0,0,53.31,19.7V60.19a3.75,3.75,0,0,0,3.75,3.75h9.63v50a3.77,3.77,0,0,0,3.75,3.75H82.16a3.75,3.75,0,0,0,3.75-3.75V54.57ZM72.15,112.2V62.25a3.75,3.75,0,0,0-3.74-3.75H58.77V19.69a9.64,9.64,0,0,1,3-7.34,13.32,13.32,0,0,1,7.15-3.18l.34.07h.33a10.77,10.77,0,0,1,10.93,10.6V60.57h0v51.6Z"/></g></g></svg>