<svg id="Capa_1" xmlns="http://www.w3.org/2000/svg" viewBox="0 0 40.4 40.4"><style>.st0{fill:#fff}</style><path class="st0" d="M20 40.4c-1.2 0-2.5-.1-3.7-.4-1.3-.3-2.5-.7-3.7-1.1-1.2-.5-2.4-1.2-3.5-1.9-2.2-1.5-4.1-3.4-5.6-5.6-.7-1.1-1.4-2.3-1.9-3.5-.5-1.2-.9-2.5-1.2-3.8-.3-1.3-.4-2.6-.4-3.9 0-1.3.1-2.6.4-3.9.3-1.3.7-2.5 1.1-3.7.5-1.2 1.2-2.4 1.9-3.5C5 6.8 6.8 5 9 3.5c1.1-.7 2.3-1.4 3.5-1.9 1.2-.5 2.5-.9 3.8-1.2 1.3-.3 2.6-.4 3.9-.4 1.3 0 2.6.1 3.9.4 1.3.3 2.5.7 3.7 1.1 1.2.5 2.4 1.2 3.5 1.9 1.1.8 2.1 1.6 3 2.5 1 .9 1.8 2 2.5 3.1s1.4 2.2 1.9 3.4c.5 1.2.9 2.5 1.2 3.8.3 1.3.4 2.6.4 3.9 0 1.3-.1 2.6-.4 3.9-.3 1.3-.7 2.5-1.1 3.7-.5 1.2-1.2 2.4-1.9 3.5-1.5 2.2-3.4 4.1-5.6 5.6-1.1.8-2.3 1.4-3.5 1.9-1.2.5-2.5.9-3.8 1.2-1.3.3-2.6.4-3.9.4 0 .1 0 .1-.1.1zM20.1 2c-1.1 0-2.3.1-3.4.4-1.2.3-2.3.6-3.4 1.1-1.1.5-2.1 1-3.1 1.7-2 1.3-3.7 3-5 5-.7 1-1.2 2-1.7 3.1-.4 1.1-.8 2.2-1 3.4-.4 1.2-.5 2.3-.5 3.5 0 1.2.1 2.4.4 3.5.2 1.2.6 2.3 1 3.4.5 1.1 1 2.1 1.7 3.1 1.3 2 3 3.7 5 5 1 .7 2 1.2 3.1 1.7 1.1.4 2.3.8 3.4 1 1.1.3 2.3.4 3.5.4 1.2 0 2.4-.1 3.5-.4 1.2-.3 2.3-.6 3.4-1.1 1.1-.4 2.1-1 3.1-1.7 2-1.4 3.7-3.1 5-5 .7-1 1.2-2 1.7-3.1.4-1.1.8-2.2 1-3.4.3-1.1.4-2.3.4-3.5 0-1.2-.1-2.3-.4-3.5-.3-1.2-.6-2.3-1.1-3.5-.5-1.1-1-2.1-1.7-3.1s-1.4-1.9-2.3-2.7c-.9-.8-1.8-1.6-2.8-2.3-1-.7-2-1.2-3.1-1.7-1.1-.4-2.2-.8-3.4-1-.9-.2-2-.3-3.2-.3h-.1z" id="Path_70"/><path class="st0" d="M12.4 20.2l1.5 1.4 5.5-5.5v12.1h2V16.1l5.5 5.5 1.5-1.4-8-8-8 8z" id="Path_71"/></svg>