<svg id="Capa_1" data-name="Capa 1" xmlns="http://www.w3.org/2000/svg" viewBox="0 0 599 167"><defs><style>.cls-1{opacity:0.89;}.cls-2{fill:#f58220;}</style></defs><title>fondo naranja_banner. 100%</title><g id="Grupo_819" data-name="Grupo 819" class="cls-1"><path id="Trazado_720" data-name="Trazado 720" class="cls-2" d="M242.4,153.14c-.77-.87-1.55-1.72-2.32-2.58-3.71-3.4-8.34.15-12.32-1.2-3-.18-6.08-.29-9.1-.52-3.53-.28-3.31,1.55-2.78,3.6-2.45.17-5.27-1.58-7.66,1.48,3.24-.2,6.4,2.06,8.62-1.46a9.27,9.27,0,0,0,6.23,1.81,27,27,0,0,0,9.34-1c3.14,2.15,6.65-.32,9.88.57,4.2.43,8.36,1.54,12.64.44,5.13.89,2.67-3,5.18-5-3.93.34-5.35,1.76-6.54,3.47A20.78,20.78,0,0,0,242.4,153.14Z"/><path id="Trazado_721" data-name="Trazado 721" class="cls-2" d="M272.92,150.06c-.75-.1-1.42-.89-2.13-.43-2.25,1.47.1,1.23,1,1.47-.53,3.55,1.46,4.32,5.25,3.39l-1.58-3.93A4.84,4.84,0,0,0,272.92,150.06Z"/><path id="Trazado_722" data-name="Trazado 722" class="cls-2" d="M576.06,108.76c-4.14.12-6.53,0-10.35,2C570,111.48,572.41,111.17,576.06,108.76Z"/><path id="Trazado_723" data-name="Trazado 723" class="cls-2" d="M573.66,81.42c2.41.47,4.83,1,7.48-1A8,8,0,0,0,573.66,81.42Z"/><path id="Trazado_724" data-name="Trazado 724" class="cls-2" d="M509,7a8.43,8.43,0,0,0-7.12-1.44C503.73,8.14,505.76,7.78,509,7Z"/><path id="Trazado_725" data-name="Trazado 725" class="cls-2" d="M525.63,29.47c-.12-.45-.25-.92-.37-1.38-1.83.61-4.26-.34-5.86.86l.54,1.42Z"/><path id="Trazado_726" data-name="Trazado 726" class="cls-2" d="M313.53,154.05c2.92,1.23,5,3.51,6.73-.14C318.38,155.34,316.35,153.17,313.53,154.05Z"/><path id="Trazado_727" data-name="Trazado 727" class="cls-2" d="M571,45.42c-2.8.1-4.53.3-5.82,2.1A7,7,0,0,0,571,45.42Z"/><path id="Trazado_728" data-name="Trazado 728" class="cls-2" d="M580.42,103.09a7.23,7.23,0,0,0-3.86.18h0c.05-.72.11-1.46.16-2.19,1.57-.61,4.64-.08,4.49-2-.07-.83-1.45-1.28-2.53-1.12-5.29.8-10.57-1-15.82.13a2.32,2.32,0,0,0-.83.06c-6.12-3.12,2.57-2.5,3.05-4.07.27-.88,5-.53,3.25-2.26-1-1-3.52.24-5.23.75l-1.82.57a1.08,1.08,0,0,1-.81-1.3,1,1,0,0,1,.15-.35l7.27-2.09,2.87-.75a19.05,19.05,0,0,0,7.4-2.2l.23-.26a17.06,17.06,0,0,0-7.48,1.56l-4.3.83a3.81,3.81,0,0,0-1.26,0c-1.77-.76-1.08-1.84-1.08-2.83L560,87l-1.54-.85-1-1.8a4.94,4.94,0,0,0,.72-.58c1.57-.09,3.72.37,3.58-1.61l-5.26.6-4.29.23c.3-1.33,1.77-2.18,3.4-3,5-.38,10-.23,14.85-1.3,1.76-.16,3.77.36,5.22-.68h0l4.67-.47,8.14-.4c1.39,0,2.92-.09,2.77-1.23-.2-1.45-1.8-2.07-4.15-2.08-.77-1.57-3-1.94-5.27-2.27,1-.25,2.88-.49,2.9-.76.08-.94-1.59-.64-2.54-.75a29.15,29.15,0,0,0-3.37,0l-9.68.08a53,53,0,0,1-12.58-.9,1.6,1.6,0,0,0-1.07-.33c-2.56-1.14-5.61-1-8.57-1.2l-5.32-.82-13.7-2.7c.21-.24.13-.44-.25-.6.24-.84.47-1.67.7-2.5a1.42,1.42,0,0,0,.6-.74l2.89-1.46,4.84-2.29c5.51-1.25,5.51-1.25,3.61-3.07h0l-5.39-2.06,7.1-2.8,3.83-.86c.9-.72,4.55.24,3.2-1.86-.48-.43-.95-.87-1.42-1.31a4.51,4.51,0,0,0-1.46-.24s.1,0,.12-.06h0l1.34.31c1.83-.56,4.13-.69,5.1-2,2.28.2,4.54.35,5.78-1.22,1.11-.83,3.37-1,3.6-2.34a10.11,10.11,0,0,0,6-1.65c-2.59.24-5.3-.56-7.5.51h0c-5.92,1.12-12.44,1-17.93,3a7,7,0,0,1-1.12-.06c-.92-1-.61-1.38,1.43-1.89,2.23-.57,5.73-.13,6.85-2.61L538,37.24l-1.3-.82c.44-.07.88-.13,1.33-.17,3.19-.3,6.35-.64,7.87-2.69,1.42-.2,2.83-.41,4.25-.63,1.53.23,3.08.43,4.15-.54.15-.13-.05-.6-.25-.64-1.23-.26-2.53-.55-3.6.23-2.39.28-5.08-.57-7.2.7-1.19-.74-2.73-.26-4.09-.41l-2.62-1,2.56-.16c2.43,0,3.62-.64,3.42-2.11,1.5,0,3.74.18,3.5-1-.17-.81-2.16-.53-3.29.07-1.57,0-3.22-.2-4.47.63a10.21,10.21,0,0,0-4.46.43l-8.09.56c-1.39-.42-3.35-.12-4.23-1.18l5.46-.77c3.06-.44,6.4-.3,9.54-1.54a14.62,14.62,0,0,0-9,.1c-6.28-.67-12,.63-17.64,1.93q-4.92.16-9.85.3c-1.72-.55-5.05.15-4.62-2.08l14.5-3c-.12-.39-.25-.77-.37-1.15-9.49,1.1-19.2.53-28.61,2.17-1,.16-2,.3-3,.45a1.89,1.89,0,0,0-1.32.16l-7.16.37L468,25.4c-4.49-1,1.07-1.1.48-1.77l4.26-1.4,1.67.08,5.58-.65c1.85-.46,4.35.12,5.67-1.38-2.38.3-4.86-.54-7.09.49l-3.75-.06-1.38-.89c2.9-1.13,5.69-2.41,9.24-2.79a8.83,8.83,0,0,0,4.61-.42,5.24,5.24,0,0,0,1.25-.1c1.38-.25,4.64.86,3.14-1.51a1.47,1.47,0,0,1,.17-.61h0c2.33-.16,4.67-.31,7-.45l3.34-1a4.56,4.56,0,0,0-4.52.1c-2,0-4.09-.66-5.78.5-1.93-.1-3.88-.71-5.77.1l-5.59-.06c-1-.24-2.23-.3-2.55-1.1l7.18-1.28,9.84-.11c1.3-.19,3.6-.11,3.07-1.14-.34-.66-2.74-.51-4,.25-3.87.05-7.71-1.18-11.62-.09a4.66,4.66,0,0,0-1.24.1l-5.48-.47h0l-1.06-.81c1-.31.82-.67.11-1.05l-1-1.54c.43,0,.85-.1,1.27-.17,3.08.3,6.17.72,9.27.07h0c1.82.2,3.58-.48,3-1.28s-3.06-.6-4.78-.55a39.91,39.91,0,0,1-11.12-.78l-7.05-.65a17.36,17.36,0,0,1-8.43-.72,75.79,75.79,0,0,0-12.6-.43h-.06c-2.33-.79-4.74,0-7.1-.09a18.69,18.69,0,0,0-7.81.23L436,2.5l.07.13c1.12,1,0,1.72-.66,2.52,0,.16,0,.31,0,.46l2.39,1L451.7,8c0,.3.05.6.07.9-2,.14-4.12-.76-6.14.11l-4-.09c-4.91-.1-9.75-1.19-14.73-.4h0l-9.15-.43c-4-.36-7.87-1-11.91-.31-5.57-1-11.25-.46-16.9-.35L385,7.3l-1.4-.06h0c-2.86-.29-5.71-.87-8.62-.11l-5.44-.06c-2.51-.27-5-.8-7.55,0a1.66,1.66,0,0,1,.43.32.35.35,0,0,1,0,.4h0c.1-.14,0-.31-.4-.73a110.59,110.59,0,0,0-15.23.07l-8.54.19c-8.27.05-16.54,0-24.62,1.34A30,30,0,0,0,305,9c-2-.08-4-.56-5.8.4-4.13-.46-8.2-.65-12.05.7-2.28-.24-4.58-.55-6.71.33-3.33,0-6.68-.38-10,.25a8,8,0,0,0-4.56.35l-2.85.56c-3.92-.06-7.83-.66-11.76,0a1.42,1.42,0,0,0-1,.1c.24.23.62.21.89.35-.14,0-.3,0-.44-.06-.82-.26.4-.06-.45-.3l-16,1.4c-13.24-.22-26.25,1.41-39.4,2-1.85,0-3.85-.59-5.46.45v0h0l-9.82.41,1.29.82,0,.05a3.9,3.9,0,0,0-1.26-.87c-3.23.46-7.1-.48-9.56,1.61h0c-1.88-1.74-4.39-.93-6.79-.56l-12.4.25-5.72.37a15.3,15.3,0,0,0-6.25.12l-13.8.11c-2.47-.55-4.73.48-7.14.37l0,.29,0,.06h0a3.59,3.59,0,0,1,.08-.35l-10,.1a166.07,166.07,0,0,0-20.44.75L85,19a30.25,30.25,0,0,0-11.87.57,93.77,93.77,0,0,0-18.27.52l-3.95-.42c1-4.2-5.14-.87-6.82-2.25.53-2.43,4.59-.55,6.1-1.78,0-.15,0-.3,0-.45.05,0,.14,0,.18,0l0,.22-.21.19c2-.56,6.11,0,5.59-2-.6-2.31-4.26-.54-6.47-.84a5.78,5.78,0,0,0-1.37.17l-4.24.21a7.35,7.35,0,0,0-6.22-.58l-3.73,0c-3.21.3-6.5.44-9.31,1.58.25.34.73.18,1.14.18h0l-1.14-.18-4.06.8c-2.69.3-5.43.54-7.34,1.91h0A2.4,2.4,0,0,0,11,18.25c-2.93,1.36-.13,2,1,2.78l.06.84.9.93c.16,1.62-2,1.93-3.85,2.47-1.4.43-3.47,1-1.86,2.06C9.72,29,9.09,31.5,12,33c1.62,1.44-8.64,2.55-.35,4.17,1.8,1.28-2.07,3.27,1.49,4.32-1.09,2.11,1,2.66,3.9,2.82,1.4,1.8.77,4.16,4.09,5.44a2.88,2.88,0,0,0,1,3.41c-.81,2-.34,3.6,3,4.57-1,1.5.44,2.83.71,4.25C24,66.3,30,68.28,33.5,71l.36-.13h0a2.4,2.4,0,0,1-.38.12L32,72.54l-3.05.76c-1.94-.09-3.9-.68-5.79.14-2.91-.48-5,.53-7.27,1.35-8.69-.14-11.72,1-12.62,4.93L4.6,81.44a4.79,4.79,0,0,0-.8.68h0c-5,1.23-1.77,2.73-.43,4.17h0a6.56,6.56,0,0,1,4.12.48c-.17.53-.33,1.06-.49,1.59-1.75.13-3.85-.61-5.09.66-.2.21.32.79.76,1.06,2,1.16,3.34-.11,4.93-.51a5.4,5.4,0,0,1,.69-.08c.48.77,1.65.82,2.76.94l4.06.28h0l0,.4-.12.4c-1.54,0-3.15-.26-4.42.53-2.56.07-6.19-1-7.26.91s.24,3.89,4.39,4.43c.16,0,.25.21.38.33h0c-.11.3-.22.62-.32.92-2.91.93-3.35,2.34-2.33,4.05l-.09.83c.63,1.68,2.83,2.32,5.26,2.8h0l4.1-.4,1.36.16c1.41.34,3.34,0,4.17,1.1-.3,1.09.7,1.62,2.32,1.88,1,1.29,4.71.9,4.81,2.74h0a38.49,38.49,0,0,1-9.82,2.2c-4.38.51-8.91,1.1-12.68,2.76-2.62,1.38-5.45,2.75-.7,4.52-3.84,4-2.82,5.45,4.39,6.22.31.53.63,1,.94,1.57a14.84,14.84,0,0,0-6.46,1l3.31,1.45-.09,1c-1.6,3.75,2.61,5.13,7.24,6.33-6,3-5.71,5,1,7.63l11.34,0,9.63,1.49a5.86,5.86,0,0,0,.1-.58h.3c-.16.19-.55.31-.4.57l6.84,1.43c3,.36,5.81,1.7,9.19.94a8.19,8.19,0,0,0,7.6.54l5.64.17a3.47,3.47,0,0,0,1.44-.67l.07,0L64.7,151,70,152h0a20.72,20.72,0,0,0,10.34.54c3.76.34,7.5,1.43,11.3.06-.05-.13-.26-.18-.34-.29h.07l.27.27,9.3.76c3.72.7,7.4,1.73,11.39.54l2.23.25h0c5.19,1.11,10.7.52,16,1l1.5-.07c2.93.16,5.78,1.22,8.8.21h0c5.73,1.72,11.88.87,17.88,1,.3-.23.11-.48.09-.72l.1.07c-.06.22-.13.43-.2.65,2.44.31,4.88,1,7.3,0a4.48,4.48,0,0,0,1.27-.06c3.39.2,6.75,1.19,10.17.07l4,.1c3.61-1.6,6.83,1.75,10.42.25,1.84.09,3.67.19,5.51.25.81,0,2.09.14,1.79-.63-.16-.41-1.35-.69-2.07-1-1.08-1.23-3.25-2.08-3.39-3.63,3-2.25,6.68-1.36,10.32-.77,1.63.26,3.42.21,4.23-.87s-.45-1.51-2-1.77c.64-2.74,6-.94,7.56-2.79.47,0,.94.06,1.4.06h0l1.29.93c-.17.83-.35,1.65-.52,2.48-.28,1-.87,2.17,1.53,2.62a5.92,5.92,0,0,0,5.19-1.14l2.77.11c2.46,1.74,5.88,1.21,9,1.22,5.93,0,11.87-.09,17.81-.14l4.43-.6c3.73.06,9,2.73,10-2.06,0-.08,2.05,0,3.15,0,1.32,1.31,4.18-.15,5.56,1.07,7.49,3.41,16.45,1.52,24.69,2.26,1.32.13,2-1,2.42-1.85a13.86,13.86,0,0,1,8.09-.23c1.5,2.64,5.05,2.73,9,2.81,5.44.1,3.59-3.05,5.93-4.27,4.76-.38,7.6,2.38,12,2.54.94.69.59,2,2.75,2.1,6.11.14,12.13,1.4,18.32.39l-.07-.22h0l.06.22c2.7.11,5.41.29,8.11.31,1,0,2.53-.2,1.73-1.12-.28-.33-1.63-.32-2.5-.46a1,1,0,0,0,.37-.57c3.22-.7,6.72,1.69,9.81-.34l1.29.11c5.55,4.13,13.17,3.56,20.72,3.17,5.75.2,11.56-.76,17.29.5,2.5.55,5.13,2.33,8.15.45,2.44.28,4.87,1.14,7.33,0l4,0,3-.53,1.5,0c1.31.4,2.32,1.74,4.16.44,3.28-.24,6.65,1.8,9.85-.18h0a24.51,24.51,0,0,1,7.15-.34l7.36.64c-1,.74-2.29,1.58.41,1.95a12.36,12.36,0,0,0,6.35-.56c2-.08,4.06.39,5.89-.42l2.53-.73c0,.26,0,.53,0,.79.32.58.64,1.16.95,1.75l-3,.76-2.78-.13c-1.78-.13-3.9-.68-5,.54-.44.48,1.06.68,2,.72l2.65,1.1,1.23.1a.6.6,0,0,0,0,.12,1.83,1.83,0,0,0-1.21-.21c-2.27,1.3-5.16.76-7.2.26-3.59-.86-6.36-.56-9.2,1.21,6.07-1.72,11.3,2,17.34.5,2.35-.4,5,.74,7.2-.49l2.83.14c4.23,1.18,8.5-.08,12.74,0a10.89,10.89,0,0,0,11.21,1c2.06-.15,4.23,0,6-.85,2.44,0,5,.15,6.4-1.51,3.9-.27,7.49-.77,7.62-3.75,1.2-.72,1.39-2,3.47-2.22,1.8-.52,3.59-1.05,4.54-2.19l1.67-.75c2.8-.07,2.55-.89,1.92-2.18-.92-1.87-2.77-.69-4.3-.66h0l.61-1.42a9.53,9.53,0,0,0,5.79-2.35c-3.23.42-5.54.19-7.44,1.08l-2.67.1-1.43-.28.16-.84a7,7,0,0,0,4.88-1.85h0l10.9-5.47a3.94,3.94,0,0,0,3.47-2.22c2.45-.14,3.13-1.74,5.5-2.22,2.94-.59,8.62-1.24,7.4-3.14-1.38-2.16-5.92.17-9.1.32-1.45-.83-4.95,2-5.17-1,6.52-1.86,12.56-4.33,19.57-5.59h0l2.89-.52,5.44-1-6.42-.47h0a4,4,0,0,0-1.27-.35c.37-.84,2.64-1.58.41-2.56a2,2,0,0,0,.21-.49l-.12-.25c1.77-.09,3.74-.54,3.16-1.66-.82-1.56-2.52-.18-3.83,0-1.11.17-2.2.36-3.3.55l-7.4,1.28-4-.47c.3-.86,2.48-1.09,2.11-2.18h-.19a8.85,8.85,0,0,0,1.26,0c3.36,1.34,5.37-.06,7.46-1.3,1.7-.46,4.45.12,4.73-1.76.07-.51,0-.86-.95-.8-2,.15-4.44-.09-4.75,1.73l-1.55-.12c-2.17-1.11-4.1-.24-6.07.27l-5.53-.22c-1.29-.3-3,0-3.82-1,1-1.15-.67-1.9-1.19-2.82,1-1.21,3.71-.11,4.76-1.25l6.25-1.19h0l5.44-.66a43.64,43.64,0,0,0,9.82-1.64l3.56-.89c1.39.38,3.3.15,3.39-.48S582.41,103.05,580.42,103.09ZM491.8,14.35l-.24-.18v0l.23.2ZM16,22.17h.17v.07L16,22.17ZM358.78,10.33c-.15,0-.3,0-.46,0l.2-.11c.08,0,.18,0,.26.1ZM546.57,69.94s.08,0,.1.07l-.22,0-.05,0h0l.06,0,.12,0ZM316,147l-.12,0,.14,0S316.05,147,316,147ZM514.81,72.14c.73.74,1.84,1.5-.11,2Zm-386,77.74.45-1.54-.12,0c.1-.08.06-.18.11-.26s.05,0,.07,0l-.06.25c-.84.46-.72,1-.36,1.54ZM545.33,94.53l0,0h0Zm-104.27,51a1.52,1.52,0,0,1,.68.22,2.26,2.26,0,0,0-.68-.22Zm-278.46.12a7.67,7.67,0,0,0,.84-.32c0,.13-.16.23-.18.36-.22-.05-.44,0-.66,0Zm-112-8.79h0l0,.44h0c.34-.14.1-.29,0-.44ZM441.35,23.22h-.14c.18-.23.37-.46.56-.67h0A.58.58,0,0,0,441.35,23.22Zm90.7,72.19a2,2,0,0,0-.17-.23l.46,0c0,.08-.23.12-.3.19ZM270.72,24.22a14.72,14.72,0,0,0,4,.89h0A7.86,7.86,0,0,0,270.72,24.22ZM89.27,136.86ZM79.49,65.53a2.09,2.09,0,0,0,.17-.41c0,.13-.07.27-.17.41ZM453.59,130h0ZM165,121.31c-.4-.11-.72,0-1.1,0,.28-.06.57,0,.85-.1.05.06.23,0,.25.11Zm3.27,2.57a2.67,2.67,0,0,1,.2-.46,2,2,0,0,0,0,.25c-.06.08-.17.12-.22.21ZM91.46,87.05c.36,0,.47-.15.76-.17-.16.09-.35.17-.52.26,0-.06-.19,0-.24-.09Zm111.75-42.4c-.08.36-.15.71-.23,1.06h0c.3-.34.63-.67.23-1.06Zm264.42,45.1h-.3l0,0c.08,0,.2,0,.27,0ZM284.93,42.11l.05,0h-.09a.05.05,0,0,0,0,0ZM473.1,118.76c0-.05.15-.07.2-.12s0,.09,0,.14l-.19,0ZM201.45,104.54h0Zm30-31.37a1.83,1.83,0,0,0-.25-.08c.06-.12.17-.26.14-.37a.37.37,0,0,1,.12.45Zm-3.37,1.18-.09,0,.07,0s0,0,0,0Zm111.52,1.9c-.28,0-.37.18-.61.24,0-.11.05-.24,0-.35.18,0,.43.06.6.11ZM175.55,91.72a4,4,0,0,0-1.79-.91l0,0a3.91,3.91,0,0,0,2.17.86C175.8,91.71,175.64,91.66,175.55,91.72Zm74-11.57c0,.07-.21.11-.27.17l-.12-.16Zm-5,9.8a.52.52,0,0,0,0,.11,1,1,0,0,0-.08-.11Zm-7.7-14.57a4.86,4.86,0,0,1-1.18-.35l0,0a2.27,2.27,0,0,1,1.23.39ZM166.35,96l-.09.08-.07-.09Zm5.14,2a2.54,2.54,0,0,0-.57-.4c.52-.21.64,0,.57.4Zm72.89-7.34,0,.07a5.16,5.16,0,0,0-2.35.51h0A4.28,4.28,0,0,0,244.38,90.69Zm92.08-10.93h0Zm48.12,7.84,0,.06s-.05,0-.08,0S384.55,87.62,384.58,87.6Zm22-3.18a3.48,3.48,0,0,0-.38-.23c.18,0,.32,0,.5,0,0,.1-.09.14-.12.22Zm-184-5.34c.12-.14.07-.21.16-.33s.11.1.18.12c-.09.11-.27.09-.35.21Zm-47.47,22.66h0s0,0,.05,0l-.06.06s0,0,0-.06Zm42.49-6.51c0,.14.16.18.12.34-.27-.1-.56-.14-.83-.24a5.77,5.77,0,0,0,.71-.1ZM178.48,80h-.08l.09-.07s0,0,0,.08Zm33.24,20.12h.22l0,0c-.05,0-.15,0-.19,0ZM300.3,84.32h.05a6.72,6.72,0,0,0-3.48,1.1l-.08,0a5.49,5.49,0,0,0,3.5-1.05ZM157,80.07l-.35.16h-.06a2.32,2.32,0,0,0,.39-.18Zm150.27,9.47,0,0h0Zm14.9-3.14.72-.33h0a2.17,2.17,0,0,0-.7.34Zm35.62,6s0,0,0,0,0,0,.06,0l-.08,0Zm43.59,9.26,0,0h.12s-.07,0-.1,0ZM339.48,53a6.13,6.13,0,0,0-1.38.62h0l1.37-.63Zm-1.59.61v0s0,0,0,0,0,0,0-.05ZM156.18,77.48c-.24.08-.19.13-.37.2-.05-.1-.23-.15-.31-.24l.68,0ZM136,96.51l.38-.17.05,0a2.26,2.26,0,0,0-.43.17v0Zm9.72,2.25c-.07-.05-.18-.06-.25-.11l.35,0c-.05,0-.05,0-.1.06ZM313.12,94c.05.07.18.11.23.18h0c-.28,0-.56,0-.85,0a6.26,6.26,0,0,0,.61-.21Zm4.45.49h0ZM364.87,93l-.77.22c0-.1.16-.14.16-.27l.61,0c.07-.28.13-.56.19-.85h.16c-.31.26-.52.52-.34.84Zm26.33,9.56h.05l0,0Zm4.41-32.92h0a0,0,0,0,0,0,0c.2-.21.13-.43,0-.64h.2c0,.21-.09.41-.13.62Zm-22.95-5.72a2.5,2.5,0,0,0,.29-.5l.23.51c-.17,0-.34,0-.52,0Zm7.8-16.4c.17-.06.34,0,.5-.05l.13.1-.62,0Zm-2.9-.12,0-.06h.17l-.14,0ZM365.49,97.28a3.42,3.42,0,0,0,2.5,1,.91.91,0,0,1-.07.14,3.7,3.7,0,0,0-2.44-1.13Zm19.05,9.85h0Zm-1.18-.92,0,0h0v0Zm32.75-.19.1.07-.11,0a.09.09,0,0,0,0,0ZM434.84,85.5s-.12,0-.16-.08.13,0,.2.06l0,0ZM380,57.33c.21,0,.41,0,.61,0-.24,0-.36.1-.61,0ZM269.9,52l.4-.18c0,.08-.14.1-.13.2l-.27,0Zm-9.78,1.9.93-.69a5.15,5.15,0,0,1,.32.82c-.4,0-.93-.11-1.25-.13ZM223.9,106.21h0c-.08.1,0,.21-.07.32h0c0-.12,0-.22.07-.32Zm101.53-8.54h0a.24.24,0,0,1,.12,0s-.06,0-.09,0,0,0,0,0Zm36.95.18c-.19.11,0,.18-.1.29-.07-.09-.1-.2-.17-.3h.27ZM479.8,114.2ZM365,47.2c0-.05.07-.06.1-.11a.75.75,0,0,0,.07.12l-.18,0h0Zm-2.84,58.2v.06h-.23c.08,0,.16,0,.23-.06Zm126.08,9.43ZM466.67,96.27h0a2.23,2.23,0,0,1,0-.23h0c0,.07-.1.14,0,.23ZM400.22,49l-.08,0h.05l0,0ZM267.48,50.16h0c.12-.13.37-.06.53-.14,0,.08-.07.08-.05.17l-.47,0ZM126.24,77.84Zm-6.64,7A12.6,12.6,0,0,0,121,85c-.57.13-.87-.18-1.37-.16h0ZM227,111.52h0Zm68.22-5.94h.08s-.05,0-.07,0v0Zm13.68-4.08h0s0,0,0,0Zm51.82,3.7c0,.06,0,.08,0,.15-.3,0-.49.16-.77.17a3.49,3.49,0,0,0,.74-.33Zm40.56,9.93.15,0s0,.08,0,.12-.09-.07-.16-.08Zm81.18,7a.89.89,0,0,1-.08-.17l.23,0c-.07,0-.09.1-.15.15Zm14.16-6.73s.13,0,.17,0,0,0,0,.06l-.15,0Zm5.1-5.34c.07,0,.09.07.16.09-.09,0-.08-.09-.15-.1Zm2.82,1.66c1.76.16,2.65-.38,3-1.33h0a6,6,0,0,0-3,1.35l0,0Zm-267-61.26c-.06,0-.15,0-.21,0a1.42,1.42,0,0,0-1.06-1l-.09,0a2.25,2.25,0,0,1,.31-.51c-.06.22-.19.23-.22.54Zm-61.46,1.41-.56-.17c.08,0,.13,0,.22,0s.28.07.35.18Zm-11.45-.08s.12,0,.15-.07l.1.09a1.9,1.9,0,0,0-.25,0ZM175,115.21l-.05.13-.16-.09a2.25,2.25,0,0,1,.22,0ZM357.75,106h0c-.15.07-.36.06-.52.12s0-.09,0-.16l.53,0Zm-34.34,2.84.11.11a3.39,3.39,0,0,1-1,.69,3.51,3.51,0,0,0,.92-.8Zm170.7-7.12h-.19l.06-.07a.39.39,0,0,1,.14.08ZM416.88,57h0Zm.62-9.27h0ZM214.34,51.46s0-.07,0-.11h.29c-.05,0-.17.07-.24.12ZM113.59,103.1h0l-.27,0h0l.28,0ZM320.94,111s-.1-.1-.14-.16l.3,0L321,111ZM447.69,53.27h0ZM410.41,34.52h.15s0,0,0,0-.12,0-.16-.06Zm-288.9,19.9a.94.94,0,0,0,.1.1,2.17,2.17,0,0,0-.26,0ZM79,39.58l0,0,.07,0,0,0Zm22.86,42.85.45.35h0a4.82,4.82,0,0,0-.43-.36Zm-5.38,9.12A2,2,0,0,0,97,92c-.34-.08-.49-.32-.88-.35.11-.08.26,0,.38-.09Zm17.25,21.16a3.46,3.46,0,0,0,1.19.46h0a3.92,3.92,0,0,0-1.19-.46Zm148.51,6.55h.15a.43.43,0,0,0,0,.07l-.11-.08Zm112.54-.15h0l-.13.12s0-.07,0-.11h.13Zm94.6,3.6-.12.55a1,1,0,0,0-.45-.54c.19,0,.38,0,.57,0Zm16.32,16.46.44,0a1.83,1.83,0,0,0-.25.06c-.06-.05-.15-.05-.2-.09ZM451.11,50.23l-.46-.24c.17,0,.24.07.43,0,0,.07,0,.13,0,.2ZM425.1,39h0l1.35-1.18h0c-.8.26-1.37.6-1.35,1.19ZM395.38,31.6v.06a.16.16,0,0,1-.13,0Zm-118.3.63h0Zm-2.64,3.59.05,0h-.08l0,0Zm-82.64,8-.05-.09.28,0-.23.11Zm-94,30.84c-.19.1-.4.06-.58.17-.06,0-.2,0-.24-.1.28,0,.55,0,.82-.07Zm26.67,43.64-.2.06c0-.07-.13-.1-.17-.16.12,0,.27.06.38.1Zm133.34,1.44h.15l-.09.41-.09.4h0c.42-.26.24-.53,0-.81Zm8.39,1.47a3.72,3.72,0,0,1-.39.21c0-.08.14-.15.12-.24Zm13.22-1.95c0-.15.06-.3.1-.44.36-.06.73,0,1.1-.1-.36.23-.88.23-1.2.54Zm136.49,6.3c.07,0,.14,0,.21,0-.12.06-.13.14-.24.21s.05-.13,0-.2Zm38.15.27.44,0-.9.3c.14-.13.35-.19.47-.33ZM335.77,32.92a1.36,1.36,0,0,0,0,.2c-.18,0-.36,0-.54,0Zm-7.55-.3,0,0h0s0,0,0,0Zm-35.55.85c-.55-.1-1.14,0-1.69-.09a18.89,18.89,0,0,0,2.25-.39c-.24.25-.47.5-.56.48ZM99,65.6h0s0,0,0,0Zm-3,39.61a.08.08,0,0,1,0,.05s0,0,0-.05Zm337.75,24.21s-.06,0-.06,0h0A.21.21,0,0,0,433.77,129.42Zm18,2.18-.06.62h0a.46.46,0,0,0-.06-.6.76.76,0,0,0,.15,0Zm55.65-6.9c0-.16.08-.33.11-.49,0,0,0,0,.05,0a.49.49,0,0,0-.05.53Zm-40-44.49,0-.2c.07,0,.15,0,.22,0s0,.1,0,.14l-.28.08ZM430.52,33.48l1.37-.6h0a3.63,3.63,0,0,0-1.37.62Zm-58.13-7.7h.06l-.06,0Zm-87.31,2.71,0,.05h-.05s0,0,0,0ZM261,27.65h0v0Zm-8.63.27-.12,0,.16,0ZM86.2,39.23v0l0,0Zm-33.44,9.3h0s0,0,0,0ZM71,56.74l0,0,0,0v0ZM70.18,93.1l.17,0s0,.08,0,.13l-.12-.15Zm2.75,27.55a1.31,1.31,0,0,0-.36-.21h0c.11.07.35.1.35.2Zm78.77,9.86h0c.22-.13.54-.06.78-.15,0,.08-.08.12-.11.2l-.68-.05Zm322.75,13.65c.06.06.1.13.16.19s-.14,0-.21,0,0-.13.05-.19Zm36.26-21.75c-.07-.08,0-.12-.06-.18s.1.1.19.15-.09,0-.13,0Zm8.42-18.66a1.1,1.1,0,0,0,0-.16c.1,0,.12.13.2.16s-.1,0-.17,0ZM413,23h0ZM56.83,43,57,43h0l-.17.08s.06-.06,0-.1Zm2.39,41.69s-.1,0-.14,0v0l.14,0ZM103,117.37l.25.2-.32,0C103,117.51,103,117.45,103,117.37ZM65.78,124c-.18.17-.44.15-.59.39-.12-.23-.36-.33-.51-.54C65.06,123.85,65.41,123.93,65.78,124Zm184.68,3.72s.09,0,.13,0,.09.06.15.08a1,1,0,0,0-.65,0c.1-.08.29-.06.38-.15Zm44.68-1.6-.11-.19h0a2.09,2.09,0,0,0,.25,0,1.33,1.33,0,0,0-.14.19Zm228-21.37s0-.07.07-.1,0,.06,0,.1ZM424.64,27h0Zm-99.91-4.83h0l.11-.08s-.07.05-.07.09Zm-28.26-1.1a1.19,1.19,0,0,0-.43-.3l.62.21c-.05.05-.14,0-.19.09Zm-26,2.24c-.05,0-.12,0-.18,0s.13,0,.19,0v.06ZM137.76,37.87a.11.11,0,0,0,0,.08.26.26,0,0,1-.15,0Zm-80.06,17c.31,0,.58.12.9.11l-1.42.52c.14-.23.48-.35.52-.63ZM69.28,77.8c-.11.09-.24.06-.35.14,0-.08.12-.12.16-.21Zm-1.92,41.29s0,0,0,0h0l.06,0ZM157,138.52c0-.1.16-.16.17-.26.2.05.43.06.64.12a5.27,5.27,0,0,0-.81.14Zm7.24-7.06h.32l-.06.05C164.48,131.47,164.34,131.52,164.28,131.46ZM512.19,142s.07,0,.1,0a.08.08,0,0,0,0,0l-.12,0Zm-13.8-86.59h-.05s0,0,0-.06ZM487.53,40.27l-.08,0c.25,0,.4-.13.64-.13a1.84,1.84,0,0,0-.56.18ZM311.33,20.48l-.32.05c-.08-.27-.38-.46-.69-.65l.15,0Zm-39,2.42s-.13,0-.14-.09h.18l0,.09Zm-58.25,4.69c-.1.06-.22,0-.33.07s-.12,0-.17,0l.33-.06.17,0ZM58.34,30.41a7.28,7.28,0,0,1-.8.1c-.1-.07-.16-.18-.29-.22C57.62,30.32,58,30.36,58.34,30.41ZM80,113.27h-.1l0,0ZM46.36,131.06c-.21,0-.42,0-.63,0,.1,0,.22,0,.32-.09S46.27,131,46.36,131.06Zm-17.18.57c0-.07-.06,0-.06-.12s.17,0,.25.08a1.62,1.62,0,0,0-.19,0Zm67.68,9.24s-.09,0-.09-.08a.65.65,0,0,0,.14,0s0,.06,0,.08Zm27.55,3.69h0ZM207,131.2c-.08,0-.2,0-.29.08s0-.05,0-.09Zm54,.18,0,0a.47.47,0,0,0,0,.47H261l.09-.45Zm18.44,1.12-.15-.15h.23c0,.06-.05.09-.08.14Zm218.56,15.23a.89.89,0,0,1,.15,0l-.16.05a.2.2,0,0,1,0-.07Zm2-2.4h0l0,0ZM515,77l-.18,0a.48.48,0,0,0,.19-.41h.09c0,.12-.07.25-.1.38Zm-24.12-6.86a.19.19,0,0,1,0-.08l.18,0-.2,0Zm13.88-4.9h0l0,0s0,0,0,0Zm-7.22-12.38h0Zm-5.24-16.09c.08,0,.12-.12.19-.17s.15.17.3.26c-.16-.05-.35,0-.49-.09Zm-30.6,4.1-.47,0a1.73,1.73,0,0,0,.43-.12c0,.06,0,.11,0,.17Zm-31-27.6a1.9,1.9,0,0,0-.94-.15l0,0,1,.09a.41.41,0,0,1-.05.09Zm-43.59,4.23.25.18c-.09,0-.18,0-.27,0s.06-.14,0-.2Zm-37.15.68.16-.09,0,.1c-.07,0-.12,0-.19,0ZM318,20.64H318a.76.76,0,0,0,.23-.78h0c-.06.26-.12.52-.17.79Zm-45.59,1.05-.33,0a1,1,0,0,0,.08-.11l.27.07s0,.06,0,.08ZM128.75,27.18h.2l-.06.05s-.1,0-.13-.05Zm-79,3.32h-.22a0,0,0,0,0,0,0l.21,0v.05Zm-10.17.94-.34-.1.26-.06c.06.06,0,.13.08.16ZM53,80.85h-.12l0,0h0ZM31.63,93a1.18,1.18,0,0,1-.07.2h0a.23.23,0,0,0,.07-.19Zm27.62,11.09c-.07,0-.1,0-.17,0s.09,0,.12,0l0,0ZM67.8,104h0l.64-.14c-.14.1-.39.1-.5.22s-.1-.06-.14-.07Zm105.32,45.6h0a1.16,1.16,0,0,0,0,.18h0c0-.06.06-.12,0-.18ZM429,144.23l.05.06.05,0h0l0,0c-.09,0-.19,0-.28,0l.24,0Zm69.73,6.94.22.1c-.1,0-.13-.09-.23-.09Zm46.57-56.68s0,0,0,0l.18.1c-.12,0-.07,0-.21,0Zm-94.53-69h0c.08-.06.24,0,.33-.08s-.07.06-.07.1-.18,0-.26,0ZM370.71,15.36l-.25.08.09-.4c.06.11,0,.23.16.33ZM152.2,24.52c.18.07.38,0,.56.1l-.69,0C152.1,24.58,152.18,24.58,152.2,24.52ZM30.66,34.07a1.4,1.4,0,0,0,.35.1c-.17,0-.33,0-.49.07h-.08c0-.1.19-.07.22-.16Zm17.4,4c0,.11-.22.11-.3.18s.05-.1,0-.17.17,0,.27,0Zm.54,43.21h-.08c.06-.28.11-.57.35-.6-.08.19-.29.23-.28.6ZM25.61,127c.1,0,.09.06.19.07h0s-.09,0-.13.05a.67.67,0,0,1-.06-.12ZM189.14,135h0l.08,0s-.05,0-.06,0ZM551.56,92.37h0a4.15,4.15,0,0,0,.76-.38h0ZM535.87,72.68s0,0,0,0h0ZM456,27.73l.08,0,0,0Zm7.32-20.1a.42.42,0,0,0,.05.22h-.1c0-.07,0-.14,0-.21Zm-39.95,6.66h0l-.17,0s.07,0,.1,0Zm-9.94.13h0l0,0c-.08,0-.17-.05-.26-.06.09,0,.2,0,.29,0l0,.1,0,0Zm-42.61-.65h0Zm-47,.62s0,.07,0,.11h-.15l.09-.12ZM269,17.22s0,0,0,0v.05h0c-.05,0,0,0-.08,0s.06,0,.07-.05Zm-8.16,3.49.25.2c-.11,0-.21,0-.32,0,.08-.09,0-.15.07-.22ZM32.08,39.43c0,.19-.07.37-.1.56h0a.44.44,0,0,0,.08-.56ZM363.91,149.55s.06,0,.08,0l-.13,0s0,0,.05-.05Zm157.22-107s0,0,0-.06,0,0,0,.06ZM462.66,29.9l.06-.28c.12,0,.24,0,.36,0-.15.14-.29.1-.43.26ZM268.33,13.68l.06.09h-.08s0,0,0-.08ZM131.18,21.23l.25.19c-.15,0-.3,0-.44,0ZM27.72,40v0h0l0,0c0,.06,0,.12,0,.19a4.25,4.25,0,0,1-.49-.21c.22,0,.29.1.54,0ZM26.19,78.93h0Zm-11.8,52.5.19,0h0v0l-1.21.62h0c.83.06,1-.23,1-.65Zm39.17,18c0,.08-.05.16-.07.24,0-.08,0-.16-.06-.24ZM78.14,147s.1,0,.13.06L78,147l.11,0Zm9.34,3.3s0,0,.07,0a0,0,0,0,0,0,0Zm418.92,4.8v0h0Zm35.81-37.92c-.15,0-.25-.06-.4-.06l.21,0c.05,0,.14.05.19.09Zm-10.9-65.28h0l1.87-.64h0a2,2,0,0,0-1.87.64ZM543.12,33h0ZM516.6,31.42c-.06,0-.1,0-.15,0,0-.16.08-.33.13-.5,0,0,0,0,0,0h0c-.08.15-.16.3,0,.46ZM457.18,9.3h0Zm-20.11.91-.41,0,.14,0c.08,0,.19,0,.27.07Zm-4.2-.27a.36.36,0,0,0,0,.11l-.1-.12Zm-26.93-.39s0,0,0,0h-.07l-.16.17-.18-.05.34-.12.07,0Zm-5-1s-.13,0-.16.09-.18-.08-.22-.13l.38,0ZM360.06,8.1h0c-.05,0-.08,0-.13,0ZM85.56,19.7a4.1,4.1,0,0,0-.49.06c0-.06-.19,0-.23-.09ZM23.42,53.21s.06,0,.1,0l-.11.06a.36.36,0,0,1,0-.1Zm2.72,25.66s0,0,0,0l-4-.35c-.07,0-.18,0-.26,0s-.14-.12-.2-.2c.19,0,.26.15.46.17a4.31,4.31,0,0,0,3.95.32Zm75.1,73.27a.86.86,0,0,0,.16,0l-.07.06h.22a1.57,1.57,0,0,0-.23,0,0,0,0,0,1,0,0,.43.43,0,0,0-.1-.09Zm22.22,1.67c0-.06,0-.09,0-.14s.27,0,.33.12c-.12,0-.24,0-.36,0Zm52.62,1.41a1.43,1.43,0,0,0,.8.28l-.34,0C176.35,155.44,176.1,155.39,176.08,155.22Zm88.77-9.4a2.61,2.61,0,0,0,.27.06s.09.07.06.11-.22-.12-.33-.17Zm124.2,4.82s0-.06,0-.09l.18.1c-.07,0-.12,0-.19,0Zm91.82,10.94a2,2,0,0,0,1.12.15h0c-.37,0-.75,0-1.11-.07,0,0,0-.06,0-.09Z"/><path id="Trazado_729" data-name="Trazado 729" class="cls-2" d="M583.4,83.12c-2.34-1-3.93.18-6.85.47C579.75,84.78,581.44,84.31,583.4,83.12Z"/><path id="Trazado_730" data-name="Trazado 730" class="cls-2" d="M429.9,155.73a16.58,16.58,0,0,0-2.44-.29c-1.39.06-3.7-1.07-3.44,1.56.16,1.7-1.29,4,2.07,4.77,2.9.67,2.92-1.18,3.46-2.67,1.1-.41,2.33-.82,2.42-2S430.93,155.78,429.9,155.73Z"/><path id="Trazado_731" data-name="Trazado 731" class="cls-2" d="M288.64,150.57c.26,1.72,2.3,1.75,3.95.66,0-.68-.73-.83-1.09-1.25C290.46,150.08,288.4,149,288.64,150.57Z"/><path id="Trazado_732" data-name="Trazado 732" class="cls-2" d="M441.64,155.71a3.68,3.68,0,0,0-1.68.1c-.16,1.06.88,1.42,1.72,1.73.37.14,1-.24,1.4-.36C443.29,156,442.4,155.83,441.64,155.71Z"/><path id="Trazado_733" data-name="Trazado 733" class="cls-2" d="M575.26,39.33c-1.88-1.1-3.21-.07-5.15.87C572.64,40.91,574,40.47,575.26,39.33Z"/><path id="Trazado_734" data-name="Trazado 734" class="cls-2" d="M452.3,157.17c.39.54.64,1.26,1.19,1.55.8.42,1.46-.12,2.18-1.12a6.59,6.59,0,0,0-1.7-.74A5.3,5.3,0,0,0,452.3,157.17Z"/><path id="Trazado_735" data-name="Trazado 735" class="cls-2" d="M567.19,85.75c-.06,0-.1,0-.16-.06v.09h.05S567.16,85.77,567.19,85.75Z"/><path id="Trazado_736" data-name="Trazado 736" class="cls-2" d="M571.9,84.81c-1.85-.07-3.43-.17-4.71,1C569,86.8,570.6,87.07,571.9,84.81Z"/><path id="Trazado_737" data-name="Trazado 737" class="cls-2" d="M586,87.39c-1.25.36-3.14-.33-3.73,2C583.86,89,585.34,89.18,586,87.39Z"/><path id="Trazado_738" data-name="Trazado 738" class="cls-2" d="M318,151.63l2.66,2.22-.05.06s.08,0,.12,0l-.07-.05a12.4,12.4,0,0,0,2-1.07C321.83,150.67,319.93,151.49,318,151.63Z"/><path id="Trazado_739" data-name="Trazado 739" class="cls-2" d="M310.51,151.51a.91.91,0,0,0,.27.9,3.21,3.21,0,0,0,3.5-1.12C312.59,150.83,311.41,150.38,310.51,151.51Z"/><path id="Trazado_740" data-name="Trazado 740" class="cls-2" d="M18.4,110.58c-.49,0-.93.52-1.39.81.35.3.68.83,1,.84s1-.36,1.75-.72C19.17,111.07,18.74,110.54,18.4,110.58Z"/><path id="Trazado_741" data-name="Trazado 741" class="cls-2" d="M293,151.23c1.39-.1,2.85.56,4.66-.63-2.22-.23-4-.43-5.75-.63Z"/><path id="Trazado_742" data-name="Trazado 742" class="cls-2" d="M368.88,154.36c-.72.34-.18.87.23,1.26a1.57,1.57,0,0,0,2.07-.6c.16-.2,0-.63-.06-1A7.71,7.71,0,0,0,368.88,154.36Z"/><path id="Trazado_743" data-name="Trazado 743" class="cls-2" d="M579.7,86.33l-.2.35a4.12,4.12,0,0,0,4.3-1.56C581.89,84.67,580.58,84.87,579.7,86.33Z"/><path id="Trazado_744" data-name="Trazado 744" class="cls-2" d="M545.45,57.83c-.53.74.09,1.11.73.89A5.78,5.78,0,0,0,548,57.4c.06,0-.31-.47-1-1.38C546.45,56.67,545.9,57.21,545.45,57.83Z"/><path id="Trazado_745" data-name="Trazado 745" class="cls-2" d="M431.55,6.47c.89.93,2.11.6,3.25.5,0-.2,0-.4,0-.6-1.07-.16-1.72-1.57-3.07-.79A.84.84,0,0,0,431.55,6.47Z"/><path id="Trazado_746" data-name="Trazado 746" class="cls-2" d="M586.13,80.34l4.08-.4C588.92,79.26,587.48,78.12,586.13,80.34Z"/><path id="Trazado_747" data-name="Trazado 747" class="cls-2" d="M593,83.45c-1.15.35-2.85-.74-3.6,1.22l4.7.15c1.1-.35,2.45-.33,3-1.57A3.67,3.67,0,0,0,593,83.45Z"/><path id="Trazado_748" data-name="Trazado 748" class="cls-2" d="M506,24.57c-2.46.14-5,.18-6.94,2.31l6.8-1.34c.7-.26.71-.58.15-1l0,.48-.11.49c1.58,0,3.53,1,4.37-1.43l-4.23.45Z"/><path id="Trazado_749" data-name="Trazado 749" class="cls-2" d="M412.55,4.54a1.34,1.34,0,0,0-1.86.33L410.6,5c-.23.34,0,.91,0,1.24.93.54,1.37.13,1.62-.36S412.75,4.69,412.55,4.54Z"/><path id="Trazado_750" data-name="Trazado 750" class="cls-2" d="M562.67,38c-.35-.31-.64-.8-1.06-.89-.77-.17-1.56,0-1.79.87,0,.54.2,1.12,1,.94A8.93,8.93,0,0,0,562.67,38Z"/><path id="Trazado_751" data-name="Trazado 751" class="cls-2" d="M561.16,47.94c-1.62.07-2.82.12-3.9,1.61C558.94,49.77,560.2,49.87,561.16,47.94Z"/><path id="Trazado_752" data-name="Trazado 752" class="cls-2" d="M560.27,36c-1.61.35-3.65-.85-5,1,1.59,1.69,3.15-.06,4.66.12l5.94-1C563.1,35.4,561.71,34.62,560.27,36Z"/><path id="Trazado_753" data-name="Trazado 753" class="cls-2" d="M567.62,83.38,570,82.13c-.42-.26-.86-.78-1.23-.74a4.1,4.1,0,0,0-2.13.73C566,82.62,566.64,83.05,567.62,83.38Z"/><path id="Trazado_754" data-name="Trazado 754" class="cls-2" d="M562.22,110.49c-2,0-4,.07-5.21,2.25,2.64,1,4.54,0,6.44-1,1-.16,2.76-.06,2.35-1.16C565,108.57,563.45,110.52,562.22,110.49Z"/></g></svg>