<svg id="Capa_1" data-name="Capa 1" xmlns="http://www.w3.org/2000/svg" xmlns:xlink="http://www.w3.org/1999/xlink" viewBox="0 0 138.98 35.26"><defs><style>.cls-1{fill:none;}.cls-2{clip-path:url(#clip-path);}.cls-3{fill:#f58220;}</style><clipPath id="clip-path"><rect id="Rectangle_1261" data-name="Rectangle 1261" class="cls-1" width="138.98" height="35.26"/></clipPath></defs><title>fondo naranja_beneficio</title><g class="cls-2"><path class="cls-3" d="M65.56,2.35a21.81,21.81,0,0,1,4,.11A7,7,0,0,0,72,2.22l0-.17c.94-.48,0-.48-.8-.51l-.75-.21c-.09-.12-.14-.32-.52-.26s-.36.29,0,.45l.11.13h0c0,.22-.27.34-.84.32-.16-.24-1.5-.17-1.08-.48.83-.62-.57-.29-.9-.41-.08-.17-.19-.34-.74-.32s-.45.16-.46.3l-.86.18c-1.44,0-1.51.58-1.48.92S64.93,2.25,65.56,2.35Z"/><path class="cls-3" d="M28.9.87c.23-.05.43-.12.64-.18,1.13.53,2.47.15,3.7.23a30.74,30.74,0,0,0,4.6,0L42.91,1A32.33,32.33,0,0,0,37.43.86L37.15.8c1.68,0,3.72.09,5.76.21C44,1,45.16,2.18,46.25,2h0A19,19,0,0,0,49,2c3.82.16,7.62.23,11.4.05h0c.31-.05.85.11.93-.13,0,0-.37-.12-.58-.18h0c-.9-.28-2.18.14-3-.35.13-.19,1.08-.06.92-.3S58,1,57.54,1A5.41,5.41,0,0,1,56.26.9l-.75.2c-1.23-.11-.57.51-1.32.59l-.73,0-.38-.05c-.36-.3-.15-.82-1.61-.71A5,5,0,0,0,49.33.64c.09.24.47.35.85.46l0,.3a5.24,5.24,0,0,1-2,.13,2.61,2.61,0,0,0-1.47.12h0a6.35,6.35,0,0,0,1.47-.12c0-.2-.31-.32-.82-.34L47.05,1l-.27,0h0a.61.61,0,0,0,.27,0c.43,0,.82-.08.33-.28A1.71,1.71,0,0,0,45.89.65h0c-1,.43-2.15-.31-3.71-.42L39.76.12c.09-.47-.39-.55-1.29-.33h0a6.23,6.23,0,0,0-3,.3,3.86,3.86,0,0,1-2.21.2C32.59,0,31.41.1,30.85-.28c-.56,0-1.34-.13-1.23.3L30,.18l-.47.31a9.29,9.29,0,0,0-1.18,0C27.71.54,27,.3,26.53.58c-.06.05,0,.19.18.22A4.51,4.51,0,0,0,28.9.87Zm2-.63s0,0,0,0,0,0,0,0Z"/><path class="cls-3" d="M13.27-.14c.32,0,.65,0,1,0l.88-.07c.93,0,1.85,1,2.77,1,1.47.14,2.95.11,4.42.12.89,0,2.17.14,1.55-.57a1.5,1.5,0,0,0-1.74,0,2,2,0,0,1-.65,0c-.22-.21-.1-.57-1.16-.41a8.94,8.94,0,0,0-2.43.22c-.26,0-.52,1-.78,1.06S16.29-.85,15.89-.88c-.07-.28-.5-.38-1.08-.33-.75.06-.28.27-.18.43l-1.28.29c-.56.1-1-.35-1.57-.09-.1,0-.08.15,0,.22C12.05,0,12.73-.17,13.27-.14Zm4.62.81Z"/><path class="cls-3" d="M45.29,32.73c-1.82-.09-1.82-.09-1.63.27a3,3,0,0,0,2.42-.14c.07,0,0-.14-.08-.22C45.77,32.68,45.53,32.71,45.29,32.73Z"/><path class="cls-3" d="M59.91,32.37a4.57,4.57,0,0,0,1.81,0C60.87,32,60.45,32.33,59.91,32.37Z"/><path class="cls-3" d="M66.3.48c.3,0,.49,0,.52-.16s-.34-.24-.69-.23a.83.83,0,0,0-.41.1C65.65.36,66,.44,66.3.48Z"/><path class="cls-3" d="M76.79,2.67c.56.1,1,0,.91-.31A8.22,8.22,0,0,0,80.22,2c-.84-.18-1.83,0-2.56-.38-.52-.27-.84.07-1.18.19s-.6.15-.46.26a3.91,3.91,0,0,0,.83.12C77.26,2.39,75.89,2.51,76.79,2.67Z"/><path class="cls-3" d="M104.64,2.2c.09-.19-.29-.2-.61-.23s-.59-.06-.57.09.35.23.71.23A1.09,1.09,0,0,0,104.64,2.2Z"/><path class="cls-3" d="M60.12,32.67a2.05,2.05,0,0,0-1.54.19A2.81,2.81,0,0,0,60.12,32.67Z"/><path class="cls-3" d="M56.26.9A1.24,1.24,0,0,0,57.54,1C57.1,1,56.79.4,56.26.9Z"/><path class="cls-3" d="M48,33a1.53,1.53,0,0,0,1.17-.2,3,3,0,0,0-1.2.06C47.86,32.89,47.89,33,48,33Z"/><path class="cls-3" d="M59.85,33.08l.53-.3M5.8,34.19m.73-1h0m80.63,1.11h0a.36.36,0,0,0,0,.11l5.6.13a12.69,12.69,0,0,0,2.62,0l6.92.11c.84,0,1.69,0,2.54,0,5,.14,9.88,0,14.8-.16a30.58,30.58,0,0,0,3.21-.19,30.79,30.79,0,0,0,3.74-.14,5.88,5.88,0,0,0,2.19-.29h0a1.25,1.25,0,0,0,.9-.09c.94-.13.27-.48.48-.71,1.06-.23.56-.71.88-1.06,1.66-.21-.58-.67.27-1,1.12-.47,0-.75-1.06-.95l2.13-.14,3.42.06c1.77.07,2.16-.33,1.84-1h.05c.46-.14,1.08-.26.31-.55,1.07-.58-.25-1.33.54-1.92.55-.12.55-.32.41-.54,0-.07,0-.14,0-.21s.05-.53-.12-.56c-2.09-.33-.69-.66-.2-1,.18-.12.31-.25.47-.37.87,0,.63-.15.39-.35,0-.12,0-.24,0-.36a4.52,4.52,0,0,0-3-1h0c-.71-.15-2,.21-2.15-.44,0-.23.57-.45,0-.69,0-.3.56-.58.13-.91l-.53-.89c0-.18,0-.35.05-.53.86-.3,2.66.35,3-.45a2,2,0,0,1,.46-.83c.33-.3.07-.62-.82-.78,1.16-.56-.26-1.17-.06-1.75h0c.31-.18.1-.38,0-.57a1.53,1.53,0,0,0-.68-.19h0l.68.19c.11-.19.33-.39-.25-.55-.91-.57.26-1.21-.55-1.79h0c.27-.16,0-.26-.25-.37.13-.16.27-.28-.37-.38a26.63,26.63,0,0,0-3.48-.27c-1.78-.34-3.94-.18-5.49-.82a.4.4,0,0,0,.29,0h0l3,.05.86,0a2.27,2.27,0,0,0,1.3-.12c.54-.11.93-.25.52-.53,0-.11,0-.22,0-.33h0c1.27-.93.49-1.89-.08-2.85.06-.2.11-.39.17-.58A4.63,4.63,0,0,0,130,5.35h0l2.22.37c-.08-.26-.42-.43-1-.54l.45-.3L131,4.49a2,2,0,0,0-.87,0,.45.45,0,0,1-.11,0,1.56,1.56,0,0,0,1,0c.41-.11,1.22-.06,1.21-.34S131.41,4,131,3.91c.25-.16.94-.19.78-.47,0-.07,0-.14,0-.21l-2.11,0v0s0,0,0,0h0a3.18,3.18,0,0,0,2.11,0c-.22-.26-.77-.18-1.2-.22h0a40.22,40.22,0,0,0-7.44-.2l-1.18,0a.65.65,0,0,0-.31,0H122a5.16,5.16,0,0,0-2.24-.21L119,2.32a24.16,24.16,0,0,0-3.6-.41,23,23,0,0,0-3.6-.8c-.35-.06-1.25-.18-1,.17s-.32.32-.86.35a13.17,13.17,0,0,1-3.59-.32l-3.28,0h0a5,5,0,0,0-2.34-.09c-.91.27-2.25-.06-3.08.31H96.33l0,.16h0c.07-.05.16-.09.07-.16l-3.48-.09a9.22,9.22,0,0,0-2.1,0l-.89,0c-1-.2-2-.55-2.69.1l-.72.67h-.51c-.12,0,0,.06,0,.09h0V2.13a2.78,2.78,0,0,0-2.28.09l-3.31-.09a3,3,0,0,0-1.88-.06c-2.13,0-4.26-.32-6.4-.19a18,18,0,0,0-3.9-.25,2.66,2.66,0,0,0-1.33.07H65.12l-.86,0a3.89,3.89,0,0,0-.41.18h0l.42-.18a6,6,0,0,0-2.21.1,16.61,16.61,0,0,1-3-.21,47.74,47.74,0,0,0-5.61,0l-1.29,0c-1.45.07-2.88-.5-4.34-.11a4.22,4.22,0,0,0-2.12-.09l-.08,0h0l.09,0a6.55,6.55,0,0,0-1,0c-.08,0-.08-.06-.17-.07-.65,0-1.32-1.1-2-1l-.84.19-.46.08h-.73a8.35,8.35,0,0,0-3-.1h0A4.72,4.72,0,0,0,35.66.27a49.67,49.67,0,0,0-7.43.1,9.25,9.25,0,0,0-2.59.1l.07,0h0l-.06,0a11,11,0,0,0-3,0A5.45,5.45,0,0,0,20,.5L18.33.31C17.4.22,16.49-.8,15.64-.63a8.11,8.11,0,0,0-2.47.07A18.06,18.06,0,0,0,7.93-.63,6.21,6.21,0,0,0,5.78-.69l-2.15,0-.86,0L1.9-.86c0-.09,0-.18,0-.27l.37-.05,3.92-.06a7.39,7.39,0,0,0,2.12-.1,1.64,1.64,0,0,0,1.19-.1A8.79,8.79,0,0,1,9.36.36c-.3,0-.6-1.91-.9-1.87h0c-.35,0-.71,1.94-.89,1.78C7.13-.43,6.64-.49,5.34,0A2.54,2.54,0,0,1,5,0c-.3-.34-1-.37-1.71-.4A.78.78,0,0,0,2-.48c-.27.32-.61.41-1.34.36A8.53,8.53,0,0,0-2.44-.37l-2.51,0h0c-.79.21-2-.1-2.63.27a1.13,1.13,0,0,1-.8.16L-9.45,0l.06-.32c.55-.4-.19-.38-.8-.4L-11.49-1a1.38,1.38,0,0,0-1.39,0c-.21.14.24.16.49.19v.19l-.4,0h0a11.39,11.39,0,0,1-3.08-.65,4.71,4.71,0,0,0-3.42-.61c-.56.07-1.28-.13-1.73.13h-.87a7.48,7.48,0,0,0-2.28.08h-1.61a8.63,8.63,0,0,0-2.18.12c-.35,0-.7-.07-.88.1l-1.71,0c.05-.07.05-.16.15-.23s.75-.27-.14-.26c-.65,0-.33.32-.46.48-1.21.29-2.73-.05-3.92.25A24.22,24.22,0,0,0-38.4-1a4.12,4.12,0,0,0-2.17.24h0a7.67,7.67,0,0,0-2.12.14c-2.39-.14-.05.68-.93.85A8.4,8.4,0,0,0-46.7.86a4.76,4.76,0,0,0-3,.45l-1.7,0a5.72,5.72,0,0,0-2.91.46c.51.26,1.22-.11,1.55.22-.24.38.83.56.86.89-.43.08-.89-.24-1.3,0-.56.08-1.35-.07-1.68.25-.11.25.2.38.79.42l0,.2c-1.23.38-3.35.14-4,.92L-59.76,5l-3,.3a49.7,49.7,0,0,0-6.14.84,8.71,8.71,0,0,0-1.87.3h0l-1.7.28A7.27,7.27,0,0,0-74.78,7H-75l-1.75.18-1.3.11-2.15.12c-.26,0-.25.09,0,.14a9,9,0,0,0,2.6,0h0a3.9,3.9,0,0,0,1.36-.14H-75c.55,0,.86.15.89.38-.68.07-.85.29-1,.53-.54.16-.36.29.19.35s.41.19.26.32h0A2.32,2.32,0,0,0-75,9c-1.08-.12-.53.65-1.68.5l-1.37.12c-.15.06-.14.13,0,.19l2.61,0c-.2.38-1.25.29-1.73.51a4,4,0,0,0-1.91.21,15.47,15.47,0,0,0,2.53,0c.37,0,.79,0,1.17,0,.6,0,1.08.06,1.19.35-.86,1-3.44.88-5.23,1.27a2.29,2.29,0,0,0-1.29.15c.42.1.83.3,1.29.05a9.21,9.21,0,0,0,3.51.1,5.18,5.18,0,0,0,1.74-.13l3.36.1c0,.11,0,.22,0,.33l-.44.14c-.87,0-2.11-.16-1.26.53l-3.15,0c1.93.56,3.86.07,5.78.22l.85.19-.05.06c0,.24,0,.48.84.51l.47.21c0,.42-1.13.25-1.5.47-.14.09-.23.19-.35.28l1,.1a.61.61,0,0,0-.07.17,1.45,1.45,0,0,0-.84.16l-1.25,0a1.9,1.9,0,0,1-.66.06,2.15,2.15,0,0,0,.66-.06,16.1,16.1,0,0,0-2.69,0c-1,.13-.08.28,0,.42l.37,0h0a.44.44,0,0,0-.37,0l-3.31-.09c0,.05,0,.11,0,.16l3.83.11,2.09.1h0a1.85,1.85,0,0,0,1.7.2,13.27,13.27,0,0,1,2.18.06c-.13,0-.18-.06-.16-.12h0l.25.11h-.09l-.45.33c-.76,0-1.56.09-1.46.39s.73.11,1.1,0a1.47,1.47,0,0,0,.82-.12l2.59-.14,0,.14c-.08.18.05.28.54.24a4.53,4.53,0,0,0,1.66-.18l1.28.09a.37.37,0,0,1,0,.14,4,4,0,0,0,2.63.25l.38,0c.22.46-1.05.25-1.34.49a3.31,3.31,0,0,0-1.26.15,7.83,7.83,0,0,0-2.25.28h0l-3.83.45L-68,19.5c-.44.08-1.08.07-1.17.38a5.92,5.92,0,0,0,1.66-.16,5.74,5.74,0,0,0,1.74-.15l2.43-.15.43.17c-1.23.4-3.09.17-4.23.65-.16.08-.13.16,0,.24h0a2,2,0,0,1,0-.24,4.53,4.53,0,0,0-2.2.43l.13.08h-.09l0-.09-1,.33a5.2,5.2,0,0,0-1.59.2c-.47-.05-1.13,0-1,.16a2,2,0,0,0,1.41.19l1.34.35c1-.21,2.2.71,3-.06a1.93,1.93,0,0,0,.34,0l.17-.05s0,0,0,.06h-.2c.46.32,1.19.13,1.77.2l.44.2c-.88.47-2.7.1-3.54.61h-.35c-.95-.06-1.66,0-1.76.47h-.4c-.61-.67-1.47-.2-2.25-.12l2.24.29a7.82,7.82,0,0,1,2.08.2,6,6,0,0,0-1.69.17l-1.72.17a4.81,4.81,0,0,0-1.91.23,13,13,0,0,0,2.17,0,2.9,2.9,0,0,0,.59,0H-69l2.15.11a2.26,2.26,0,0,1-1.29.34l-1.67.1c-.43,0-1,.15-1,.21a1.69,1.69,0,0,0,1.34,0,6.47,6.47,0,0,0,1.73-.13h1.74a1.27,1.27,0,0,0,.34,0,12.65,12.65,0,0,1-2.92.47c-.69,0-1.49-.17-2,.25l2.86.09a9.84,9.84,0,0,0,2,.09c0,.11,0,.22,0,.32h-1.58l-.9,0-1.77.28c-.28.11-.28.22,0,.34l1.25.05h0l.41.35h0l-.44.18-1.26.14a2.91,2.91,0,0,0-1.37.09c-.14.07-.18.17.07.2a1.92,1.92,0,0,0,1.29-.13,9.29,9.29,0,0,0,2.13-.12l.45.05c.08.18.21.34.72.38,0,.2-.81,0-.76.33.57-.05,1.22.13,1.68-.13h0L-65,28l.73.31c.78.54-1.62.29-1.09.79l1.07-.06a13.18,13.18,0,0,1,1.79-.08c.55-.32,1.12.14,1.68,0h0c1.07-.13,1.63.44,2.64.39a1.58,1.58,0,0,0,.31,0h0c.34.09.44.21.43.36l-1.21,0c-.41,0-.89,0-.89.28A2.64,2.64,0,0,0-58.26,30h0a5.49,5.49,0,0,0,1.75-.14l1.11-.15.14.16.36.53-1.69.19-1.73.12a5.84,5.84,0,0,0-1.75.12l-2.59.12-1.64.17a2.58,2.58,0,0,0,1.63,0l2.59-.16a5.46,5.46,0,0,0,1.74-.13,4.1,4.1,0,0,0,1.76-.08c1,0,2.2.21,2.82-.31v0h0c1.39.52,2.74,0,4.11.07a.51.51,0,0,0,.5-.09,4.15,4.15,0,0,1,2.11-.16c1.83.23,4.07-.26,5.51.68a5.47,5.47,0,0,0,1,0l.84.25-.54.31h-1.13c-1,0-1.2.41-1.8.71,1.74-.63,3.8,0,5.61-.23a20.25,20.25,0,0,0,3.13-.11l3.35,0a.24.24,0,0,1,0-.14H-31s-.14.08-.08.14a4.46,4.46,0,0,1,1.43.23,4.54,4.54,0,0,1-1.44.18l-2.15,0c-.7.16-1.81-.06-2.41.41l2.38-.1.9.19c.56.08,1.25,0,1.67.24h0l-1.72.14a11.69,11.69,0,0,0-2.29,0,11.27,11.27,0,0,0,2.24.17,4.3,4.3,0,0,0,1.77-.1h.76a3.85,3.85,0,0,0,2.65.57l.81,0h0l.51.36-.46.16a2.12,2.12,0,0,0,.87,0,2,2,0,0,1-.87,0,4.9,4.9,0,0,0-1.51.12h0a31.42,31.42,0,0,0-3.63-.07l-5.24-.15a21.8,21.8,0,0,0,6.1.37l3.84.06,2.62.06c0-.05,0-.1,0-.15h.05c-.05.05-.13.1-.07.15a110.58,110.58,0,0,0,11.37,0l.6-.17c.52.58,1.5.21,2.3.23A7,7,0,0,0-8,34.8a3.69,3.69,0,0,0-1.91-.3l-.83-.06a2.36,2.36,0,0,1,.86-.11c.32,0,.63,0,1,0a.45.45,0,0,1,.23,0,1.28,1.28,0,0,0,.54-.15h0l-.54.14a3.45,3.45,0,0,1,2.28.62c.5-.08,1.27-.09.8-.46l.09-.18,3,0c.39.12,1.15-.1,1.27.22,0,.09-.82.19-.13.34C-1,35-.23,35-.11,34.81c.28-.46,1.42-.28,2-.5h.78m77.64.05c1-.08-50.48,0-49.48.07l-29-.23m-35-34.71.07,0s0,0,0,.06h-.1a.2.2,0,0,1,0,.13h-.07s.14-.08.09-.13v0ZM123.16,3.37h0S123.16,3.36,123.16,3.37Zm-39,30.05ZM72.53,32.6l-.06,0h.07S72.54,32.59,72.53,32.6ZM50,32s0,0,0,0,0,0,0,0S50,32,50,32ZM-70.23,6.9s0,0,0,0,0,0,0,0Zm183,26.65h0Zm-130.47.54s.09,0,.13,0,0,0,0,0ZM-66,16.51h-.21a.71.71,0,0,0,.09-.07ZM42.5,2.42s0,0,0,0S42.49,2.43,42.5,2.42ZM98.56,3.7a0,0,0,0,0,0,0,.48.48,0,0,1-.12,0Zm-21.37.13h0ZM126,7.2c-.12.11-.31.17-.34.33a2.1,2.1,0,0,0-.45-.2C125.5,7.33,125.75,7.22,126,7.2ZM87.22,31.67h-.1s-.1,0-.1-.07l.28.07Zm-42.85-.62h0l0,0Zm-67.51-.25-.1-.06h.1S-23.14,30.78-23.14,30.8ZM-48.72,27a.9.9,0,0,0-.4,0h-.06s0,0,0,0l.05,0h.42S-48.72,27-48.72,27ZM112.12,6.41h-.06a.08.08,0,0,1,0-.05A.21.21,0,0,0,112.12,6.41ZM130,24.55h0ZM9.33,27.48H9.28s.05,0,.05-.07S9.44,27.48,9.33,27.48ZM124.47,16.92h0Zm2.25,7.52-.09-.05h0S126.73,24.42,126.72,24.44ZM36.28,9.08h0s0,0,0,0Zm-77.47,16.8H-41a2.4,2.4,0,0,1,.4.06A6,6,0,0,0-41.19,25.88ZM31.94,6.6s0,0,.07.05l-.09,0ZM94.78,29.28a2.86,2.86,0,0,0,.35-.18h0A1.14,1.14,0,0,1,94.78,29.28Zm-105-1h0ZM41.56,27l-.19,0,.09,0ZM-30.82,4.11s0,0,.07,0,0,0,0,0A.1.1,0,0,1-30.82,4.11ZM80.54,26.6c.08,0,.22,0,.32,0l-.19,0Zm-17.39-.19h0l0,0s0,0,.08,0Zm-74-3.87h0S-10.87,22.53-10.87,22.54Zm25.5,3.19s0,0,0,0h0S14.62,25.73,14.63,25.73ZM3.78,12.26h0Zm59.36-1.52a.59.59,0,0,0,.13,0h-.1Zm-4.2,10.57h0Zm0,0s0,0,0,0l0,0S58.92,21.33,58.89,21.33ZM48.25,17.07s.07,0,.09,0l-.11,0Zm28.2-1.5h0Zm30.69,2.3h0l-.25-.06a.44.44,0,0,0,.16,0S107.17,17.83,107.14,17.87ZM67.21,20h0ZM-2,17.61l-.07,0H-2Zm33.7,2.05h0Zm-3.46-.83.05,0h-.05ZM3.05,21h0a3,3,0,0,0,.42,0A2.13,2.13,0,0,0,3,21s0,0,0,0Zm78-1,0,0s0,0-.06,0ZM77.9,20h0Zm-2.3-.22,0-.05a2.46,2.46,0,0,1,.33.06ZM72,18.13h0l-.2.08h0C71.86,18.18,72,18.17,72,18.13ZM55.14,18V18a.45.45,0,0,0,.2,0C55.27,18,55.21,18,55.14,18Zm-2-.38c0,.06.07.07.07.11a1.68,1.68,0,0,0-.24-.06ZM73.79,20h0l.53.12h0A1.15,1.15,0,0,0,73.79,20ZM91,18.52a.63.63,0,0,0-.36,0v-.05ZM65.17,15.79Zm19.56,5.44,0,0ZM102.32,19h0c.06,0,.14,0,.12.06A.45.45,0,0,0,102.32,19Zm-2.18-1.66s0-.05,0-.07,0,0,.1.07A.27.27,0,0,0,100.14,17.32Zm-.67-2.5-.09,0s.05,0,.05,0ZM45.13,16.87a1.23,1.23,0,0,1,.34,0A1.87,1.87,0,0,0,45.13,16.87Zm-16,1.48a14.25,14.25,0,0,0-1.52-.22h0a2.42,2.42,0,0,0,1.43.19l.08,0ZM16.19,16h0Zm-12.51.39h0s0,0,0,0S3.68,16.38,3.68,16.39ZM71.2,20.9l.06.05h-.2Zm17.21.53h0v0Zm10.47-.24.07,0a.79.79,0,0,1-.13,0ZM66.06,14.92Zm-52.88.57a.83.83,0,0,1,.2-.16c-.05.07,0,.14,0,.2A.74.74,0,0,0,13.18,15.49ZM1,16.11H1Zm-10,.07Zm17,6-.18,0Zm54.83-.76Zm.53,0h0Zm9,.61,0,0s0,0,0,0ZM76.06,14s0,0,0,0h.09ZM50,15h0a1.42,1.42,0,0,0,.35-.13h0A2.84,2.84,0,0,0,50,15Zm0,0h0ZM.65,15h0Zm.38.73H1a.61.61,0,0,0-.19,0H1Zm-27.4,1h.4a1.88,1.88,0,0,0-.41,0Zm4.5.66c.2,0,.25,0,.35.08l-.32,0Zm3.41,2.46a.57.57,0,0,0-.13,0v0h.09S-18.47,19.84-18.46,19.85ZM37.69,22v0a.48.48,0,0,0-.12,0Zm8.75-2.78h0a.34.34,0,0,1,0,.1h0A.08.08,0,0,0,46.44,19.18Zm22,2.74h0s0,0,0,0Zm12.25-5.16ZM59.14,14ZM5.6,13l-.73-.28.51.05C5.73,12.76,5.69,12.86,5.6,13ZM25.51,23.57l-.05,0,0,0Zm79.92-1.13h-.15s0,0,.06,0S105.4,22.43,105.43,22.44Zm6-1.24Zm-26.2-7.68h0Zm-99.68-1c-.11.06-.18.14-.3.2C-14.66,12.61-14.43,12.58-14.49,12.47Zm-11.61-3h0Zm-7.14,7.87h0ZM108,24.6s0,0,0,.06h-.17C107.92,24.64,107.91,24.62,108,24.6ZM98.55,11.83a1.55,1.55,0,0,1-.15,0l.28,0Zm-22.9,1.05v-.05s0,0,0,.05Zm-27.19-.36c.07,0,0,.05.12.09a1.8,1.8,0,0,0-.22,0Zm-46-1.18-.12,0,.09-.05S2.42,11.31,2.45,11.34Zm-11-.27h0ZM-23.49,6.51s0,0,0-.06,0,0,0,0h-.07Zm-3.84,0,.13,0h-.11ZM28.48,26.14ZM40.2,23.3s0,0,0,0l.1,0Zm72.85.78h0s0,0,0,0l.11,0Zm2.7-4h0v.29h0C115.89,20.29,115.93,20.19,115.75,20.09Zm.4-1.48.08-.06,0,.05ZM75.66,12.52Zm-63.11.39h0ZM-29.6,10.79l0,0s0,0,0,0Zm-14,3.88h0ZM-38.2,18h0Zm13.81,7.87h0Zm132.2.69,0,0h-.08Zm14-8.28h0l0,0h0ZM93.64,10.6h0l-.13,0h0S93.61,10.62,93.64,10.6Zm-64.75.78v-.05a1,1,0,0,0,.24,0ZM-3.5,8.51h0s0,0,.06,0,0,0,0,0ZM-44,13.41l-.05,0s0,0,0,0ZM-20.46,25h0s0,0,0,0Zm0-.18,0,0h0Zm23,4h0a4.42,4.42,0,0,0-1.31,0h0Zm9.06-3.86a1,1,0,0,1,.65-.13Zm5.58,1.45v0h0s.08,0,.11,0A.48.48,0,0,0,17.19,26.39Zm25-1.13h0a1.66,1.66,0,0,0-.72-.17s0,0,0,0A1.53,1.53,0,0,0,42.23,25.26Zm8.39-.46a8.44,8.44,0,0,1,.9.15h0A2.88,2.88,0,0,0,50.62,24.8Zm12.45,1.58Zm3,1.73h0Zm0,0h0s0,0,0,0h-.06S66.1,28.11,66.12,28.1ZM79,26.24h.08S79,26.25,79,26.24Zm7.56.86v0h0ZM85.22,11.55h0ZM20.76,9.2c.19-.06.45,0,.61-.15a1.7,1.7,0,0,1,1,0C22,9.06,21.39,9.12,20.76,9.2ZM-11.85,8h0ZM-21.2,5.13h-.05Zm-11.25-1Zm.62,1.22H-32s.06,0,.06,0A.69.69,0,0,1-31.83,5.34Zm-9.41,5.14h0Zm-6.12.23s0,0,0,0S-47.36,10.7-47.36,10.71Zm18.2,15.23ZM35,28.11h0a2,2,0,0,0-.85,0h0Zm7.88-2.79s0,0-.1,0h.06ZM73.46,29V29s0,.05.05.08Zm28.19.41s0,0-.05-.05l.26.06h0ZM118.11,14c.06,0,.18,0,.2,0l.23.07C118.42,14,118.24,14,118.11,14ZM91.36,9.59h0a1.11,1.11,0,0,1,.56.07A1.66,1.66,0,0,0,91.36,9.59ZM71.47,7.77s0,0,.06,0,0,0-.07,0Zm-23.34.84.37.06c-.1,0-.2,0-.3,0S48.12,8.64,48.13,8.61ZM29.79,10.16h0a.81.81,0,0,0-.41,0h0Zm-75,1.61Zm13.46,13.38h0ZM117.41,23l0,0h0Zm6.21-5v0h0ZM76.31,5.18a.86.86,0,0,0,.28,0h0C76.52,5.16,76.42,5.19,76.31,5.18ZM60.64,7.42h0v0h0S60.63,7.41,60.64,7.42Zm-55,.27.16-.07a.46.46,0,0,0-.07.07ZM-32.87,3.58h0Zm4.95,24.86s0,0,0,0h0Zm79.34-2.17h0Zm68,1.92a.1.1,0,0,1,0,0h0l-.07,0Zm0-.35h0Zm1.75-1.39s0,0,0,0,0,0,0,0Zm2.43-5.78-.07,0h.06S123.6,20.66,123.61,20.67ZM88.07,5.61l-.07,0h0ZM43,8s0,0,0,0h.11S43.05,8,43,8ZM-19.83,2.55v.21h0c.06-.07.13-.14,0-.21Zm-32.93,14.7-.05,0,0,0Zm28.27,11.32h0ZM64.76,30s0,0,0,0,0,0,0,0Zm39.41.71h0v-.05h0S104.15,30.71,104.17,30.73Zm4.24-1.18s.11,0,.15.06l-.3,0S108.39,29.6,108.41,29.55Zm15.33-.88,0,0,0,0Zm-3-15.12a0,0,0,0,1,0,0ZM106.58,7.16h0ZM75.4,4.84s0,0,0,0l0,0Zm-1.66-.23h0s0,0,0,0ZM15.25,4.39h0c-.23,0-.45,0-.67,0A2.28,2.28,0,0,0,15.25,4.39ZM-15.94,4s0,0,0,0a1.16,1.16,0,0,1,.51.1C-15.58,4-15.79,4-15.94,4Zm-44,7.74h0s0,0,0,0ZM-37.33,25.4s0,0-.05,0l.07,0ZM-2.4,30.08a1.08,1.08,0,0,0,.74.17h0l-.75-.17Zm41.14.63h0ZM67,30.15l0-.07h0l.08,0S67,30.13,67,30.15Zm46.29,2.11a6.47,6.47,0,0,0,1.4,0,7.16,7.16,0,0,1-1.41.06ZM64.7,3.49l-1.07,0h0a2.58,2.58,0,0,0,1.07,0Zm-4.42.57h0Zm-18.62.48a.19.19,0,0,0,0,.08h-.07a.07.07,0,0,0,0-.08ZM9.13,6.19h0Zm-69.6,8h0l0,0Zm6.24,9.08Zm.72,5-.65,0h0a1.17,1.17,0,0,0,.65,0Zm34.15,3.67c.05,0,0,.05-.07.08a.27.27,0,0,0-.07-.08Zm15.65-2.07h0Zm77.86,1.67.48,0a.32.32,0,0,0-.16.1A2.56,2.56,0,0,1,74.15,31.53Zm12.66.37.06,0-.06.07Zm-9.62-28,0,0h0s.13,0,.18,0ZM67.6,3.44h0a.34.34,0,0,0-.08.2C67.51,3.57,67.56,3.51,67.6,3.44Zm-27.22.44h0l.7-.12h0A1.29,1.29,0,0,0,40.38,3.88Zm-1.74-.24h0l0,0s0,0,0,0ZM9,6S9,6,9,6,9.08,6,9.1,6ZM-10.35,4.39Zm-1.61-1a1.52,1.52,0,0,0-.2-.06l.27-.1C-12,3.33-11.93,3.37-12,3.42ZM-38.89,1.79h0ZM-57.58,17.32Zm-2.72,6h0s-.06.05,0,.08h0Zm6.06.44v0c-.12,0-.25,0-.36,0A2.1,2.1,0,0,0-54.24,23.78ZM-55.31,28s.06,0,.08.05a.34.34,0,0,0-.1,0S-55.32,28-55.31,28Zm30.76,3.05v0h0Zm-1.82.86h0a4,4,0,0,0-.85,0h0Zm79.86-1.85h0Zm47.66,2,.07,0h-.11Zm10.79.71h0ZM36,2.56h0ZM7.28,3.45s.16-.05.18,0S7.36,3.46,7.28,3.45ZM-20.59,0h0s0,0,0,0h0ZM-54.46,7.72c0-.1,0-.14.21-.06A.42.42,0,0,0-54.46,7.72ZM-56.3,27.45h0Zm-5.93,0h-.22C-62.38,27.47-62.3,27.51-62.23,27.48Zm7,1.19h0v0h0S-55.25,28.68-55.26,28.67ZM-53,29h-.09a.34.34,0,0,1,.07-.15h0C-53.12,28.91-53,29-53,29Zm32.69,5-.09,0h.12l0,.06c.06,0,.12,0,.19,0s-.1,0-.14,0S-20.31,34.07-20.31,34.05ZM5.36,32.31h0s0,.07,0,.11h0Zm120.49-.57h0S125.84,31.75,125.85,31.74ZM134.12,23h0c-.54.11-1.06.24-1.62.32A2.66,2.66,0,0,0,134.12,23ZM127.49,15l-.23,0h.26S127.49,15,127.49,15Zm-1.1-3.54ZM113.81,4.66h-.08l.07,0ZM94.57,2.19h0Zm-.42,0s0,0,0,0-.1,0-.16,0ZM69,3.22h0Zm-1-.35v0s.11,0,.14,0ZM54.71,3h0V3ZM52.55,3a.56.56,0,0,1,0,.12h0c.05,0,.11-.08.08-.12ZM36.08,1.9A.5.5,0,0,1,36,2h0s.11-.07.07-.12ZM20.49,1.58h0ZM-5.07,1.3l0,0h0s0,0,0,0S-5.08,1.3-5.07,1.3Zm-43.44.75h0ZM-56.42,9h0Zm-11.29-.71h.14a.35.35,0,0,1-.11,0Zm-.06,3.25h0l0,0s0,0,0,0Zm5.44,8.34h0Zm-5.31,3.81-.19.07h0a.43.43,0,0,0,.18-.08Zm12,5.12-.11,0s0,0,0,0ZM-53,29.94h0a2.88,2.88,0,0,0,.74.1h0Zm1.27-1.08h0Zm12.46,2,.35.12h0a.9.9,0,0,0-.34-.12l-.3,0a.92.92,0,0,0,.25-.05S-39.28,30.81-39.28,30.83Zm12.48,2.48Zm3,.78Zm1,.2-.07,0h0Zm118.26-.91h0Zm5.2-.18h0Zm.56-31.53h0ZM72,2.63s0,0,0,0l.06,0Zm-3.88-.3H68.1l0,0S68.13,2.32,68.16,2.33Zm-5.62.2a.21.21,0,0,0,0-.06h0l0,.06ZM22.87.76c.13.05.27.07.41.11C23.14.84,23,.86,22.87.76Zm-59.45-1-.09,0a.25.25,0,0,0-.09,0h.09Zm-4.36,0h0l0-.06h0S-41-.28-40.94-.27ZM-35,31.78c-.1,0-.25-.05-.31,0,.56,0,1.27,0,1.93,0C-33.93,31.78-34.48,31.73-35,31.78Zm4.78,1h0v.14h0S-30.17,32.8-30.23,32.75Zm125.65.63h0Zm38.4-21.89,0,0h0ZM20.5.69ZM-2.93-.19l-.13,0h.13ZM-5,.09s0,0,0,0l0,0Zm-3.3.19A.75.75,0,0,0-8.47.2C-8.35.23-8.22.25-8.33.28ZM-10.2-.41l-.11,0a.32.32,0,0,0,0-.09S-10.3-.44-10.2-.41ZM-19-1.34l-.08,0h.26ZM-52,3.23h0ZM-75.06,9.52h0Z"/><path class="cls-3" d="M29-.41c0,.24,0,.41,0,.58C29.23,0,29.42-.16,29-.41Z"/><polygon class="cls-3" points="111.51 22.61 111.51 22.61 111.51 22.61 111.51 22.61 111.51 22.61"/></g></svg>