<?xml version="1.0" encoding="utf-8"?>
<!-- Generator: Adobe Illustrator 23.1.1, SVG Export Plug-In . SVG Version: 6.00 Build 0)  -->
<svg version="1.1" id="Capa_1" xmlns="http://www.w3.org/2000/svg" xmlns:xlink="http://www.w3.org/1999/xlink" x="0px" y="0px"
	 viewBox="0 0 192 192" style="enable-background:new 0 0 192 192;" xml:space="preserve">
<style type="text/css">
	.st0{fill:#FFFFFF;}
</style>
<g transform="translate(0.000000,192.000000) scale(0.100000,-0.100000)">
	<path class="st0" d="M935,1750c-11-5-188-177-394-383c-334-335-374-379-374-407s40-72,381-412c340-341,384-381,412-381
		s72,40,412,381c341,340,381,384,381,412s-40,71-379,410c-208,208-388,380-399,383S946,1755,935,1750z M1262,898l-142-143v103v102
		H960H800V840V720h-80h-80v177c0,241-22,223,262,223h218v102v103l142-143l143-142L1262,898z"/>
</g>
</svg>
