<svg id="Layer_1" data-name="Layer 1" xmlns="http://www.w3.org/2000/svg" viewBox="0 0 343.67 73.54"><defs><style>.cls-1{fill:#c4161c;}.cls-2{fill:#231f20;}</style></defs><title>icbc</title><path class="cls-1" d="M188.48,49.33v-5.2H178.11V28.56h10.37V23.37H176.84V18.18h16.83V33.76H183.32V39h10.35V54.5H176.84V49.33Zm-41.55-13A28.54,28.54,0,1,1,175.46,64.9,28.53,28.53,0,0,1,146.93,36.36Zm28.53,33.77A33.77,33.77,0,1,0,141.7,36.36,33.77,33.77,0,0,0,175.46,70.13Zm-1.25-46.78V18.16H157.37V33.75H167.7V39H157.37V54.49h16.84V49.32H162.56V44.11h10.37V28.54H162.56V23.35Z"/><path class="cls-2" d="M60.89,39.13v-.08H73.47a7.8,7.8,0,0,1,4.14,1.05,4,4,0,0,1,1.86,3.56,3.85,3.85,0,0,1-1,2.86c-1.23,1.24-3.36,1.22-4.92,1.22H60.86v-.08l0-8.53m0-6.74V24.8H72.41c2,0,5.43,0,5.43,4a3.11,3.11,0,0,1-1.9,3.08,8.67,8.67,0,0,1-3.49.58H60.89ZM74,54.45c4.37,0,7.65-1.05,9.78-3.14a9.4,9.4,0,0,0,2.65-6.84c0-4.22-1.78-7.16-5.29-8.72l-.15-.06.14-.09c1.59-.82,3.68-2.51,3.68-7.53a9.32,9.32,0,0,0-3-7c-2.09-1.92-5.13-2.94-8.81-2.94H54V54.44Z"/><rect class="cls-2" x="3.92" y="18.14" width="7.23" height="36.31"/><path class="cls-2" d="M17.05,36a19.59,19.59,0,0,0,1.81,8.87,15.82,15.82,0,0,0,4.54,5.41c3.25,2.58,7.8,3.89,13.56,3.89h9.9V47.28H37.5c-5.2,0-9-1.29-11.23-3.83a10.75,10.75,0,0,1-2.43-7.23,10.34,10.34,0,0,1,2.7-7.61c2.26-2.28,6-3.42,11-3.42h9.36v-6.8H37.3a31.15,31.15,0,0,0-8.26,1,14.93,14.93,0,0,0-5.87,3A17.32,17.32,0,0,0,17.05,36"/><path class="cls-2" d="M90.75,36a21.62,21.62,0,0,0,1.82,9.19,15.78,15.78,0,0,0,4.55,5.73c3,2.42,7.35,3.55,13.55,3.55h10.45V47.6h-9.9c-5.19,0-9-1.35-11.23-4a11.19,11.19,0,0,1-2.43-7.39,10.63,10.63,0,0,1,2.79-7.84c2.27-2.28,5.92-3.46,10.87-3.46h9.9V18.14H111a30.4,30.4,0,0,0-8.26,1,15.13,15.13,0,0,0-5.86,3A17.81,17.81,0,0,0,90.75,36"/><path class="cls-2" d="M234.58,42.16c0,5.56,4.1,7.73,9.16,7.73,5.56,0,7.63-2.73,7.63-5.46a4.3,4.3,0,0,0-3-4.45c-2.53-1-5.82-1.61-10.77-3-6.17-1.67-8-5.41-8-9.15,0-7.23,6.67-10.62,13.2-10.62,7.53,0,13.85,4,13.85,11.53h-6.32c-.3-4.66-3.44-6.37-7.79-6.37-2.93,0-6.62,1.06-6.62,4.7,0,2.53,1.72,3.94,4.3,4.65.55.15,8.54,2.23,10.41,2.78a9.55,9.55,0,0,1,7,9.21c0,8.09-7.18,11.32-14.36,11.32-8.24,0-14.92-3.94-15.07-12.89Z"/><path class="cls-2" d="M259.76,28.05h4.35V20.21h5.77v7.84h5.2v4.3h-5.2V46.3c0,2.38.2,3.59,2.77,3.59a9.94,9.94,0,0,0,2.43-.2v4.45c-1.26.1-2.47.31-3.74.31-6,0-7.13-2.33-7.23-6.68V32.35h-4.35Z"/><path class="cls-2" d="M301.12,48.38c0,1.41.31,2,1.37,2a8,8,0,0,0,1.41-.1v4a14.19,14.19,0,0,1-3.64.66c-2.32,0-4-.81-4.45-3.19-2.27,2.23-6,3.19-9.05,3.19-4.7,0-8.95-2.53-8.95-7.63,0-6.53,5.21-7.59,10.06-8.15,4.15-.75,7.84-.3,7.84-3.69,0-3-3.08-3.54-5.41-3.54-3.23,0-5.51,1.32-5.76,4.15h-5.77c.41-6.73,6.12-8.7,11.88-8.7,5.11,0,10.47,2.07,10.47,7.59Zm-5.76-7.28c-1.77,1.16-4.55,1.11-7.08,1.56S283.57,44,283.57,47c0,2.58,3.29,3.34,5.32,3.34,2.52,0,6.47-1.31,6.47-5Z"/><path class="cls-2" d="M307.34,28.05h5.41v5.06h.1a8.45,8.45,0,0,1,7.63-5.77,14,14,0,0,1,2.18.15v5.57a19,19,0,0,0-2.48-.26c-3.94,0-7.08,3.19-7.08,9V54.19h-5.76Z"/><path class="cls-2" d="M324.53,28.05h4.35V20.21h5.76v7.84h5.21v4.3h-5.21V46.3c0,2.38.2,3.59,2.78,3.59a10,10,0,0,0,2.43-.2v4.45c-1.27.1-2.48.31-3.74.31-6,0-7.13-2.33-7.23-6.68V32.35h-4.35Z"/></svg>