<svg id="Capa_1" data-name="Capa 1" xmlns="http://www.w3.org/2000/svg" viewBox="0 0 247.38 247.36"><defs><style>.cls-1{fill:#f58220;}</style></defs><title>icnos</title><g id="Grupo_805" data-name="Grupo 805"><path id="Trazado_709" data-name="Trazado 709" class="cls-1" d="M121.51,247.36,96.4,218.8,60,229.73l-7.48-37.3-37-8.78,12.17-36L0,121.53,28.56,96.41,17.67,60,55,52.5l8.76-37,36,12.17L125.87,0,151,28.56,187.4,17.65l7.48,37.26,37,8.78-12.17,36,27.66,26.1-28.56,25.12,10.91,36.42-37.26,7.48-8.77,37-36-12.18Zm-20.31-45.3,20.7,23.54,21.54-22.79,29.69,10,7.22-30.5,30.72-6.16-9-30,23.53-20.7-22.79-21.54,10-29.69L182.37,67,176.2,36.28l-30,9L125.5,21.73,104,44.52l-29.69-10L67.05,65,36.31,71.15l9,30.05L21.76,121.89,44.55,143.4l-10,29.69L65,180.32l6.16,30.73Z"/><path id="Trazado_710" data-name="Trazado 710" class="cls-1" d="M96.08,80.94c15.08,0,21,8.26,21,22.27s-5.87,22.39-21,22.39S75,117.22,75,103.21s6-22.27,21.07-22.27M160,83.09l-58,81.18H87.58l58-81.18ZM96.08,91.24c-6.11,0-6.7,5.24-6.7,12s.58,12.1,6.7,12.1,6.7-5.39,6.7-12.1-.58-12-6.7-12m55.3,75.2c-15.2,0-21.07-8.38-21.07-22.4s5.87-22.26,21.07-22.26,21,8.26,21,22.26-5.86,22.4-21,22.4m0-10.3c6.11,0,6.71-5.24,6.71-12.1,0-6.7-.58-12.09-6.71-12.09s-6.7,5.39-6.7,12.09.48,12.1,6.7,12.1"/></g></svg>