<svg id="Capa_1" data-name="Capa 1" xmlns="http://www.w3.org/2000/svg" viewBox="0 0 247.38 212.5"><defs><style>.cls-1{fill:#f58220;}</style></defs><title>icnos</title><g id="Grupo_803" data-name="Grupo 803"><path id="Trazado_700" data-name="Trazado 700" class="cls-1" d="M190.18,125.37h-59.3A14.85,14.85,0,0,0,116,140.22v24.43a14.85,14.85,0,0,0,14.85,14.85h59.3A14.85,14.85,0,0,0,205,164.65V140.22a14.85,14.85,0,0,0-14.85-14.85M193,164.65a2.79,2.79,0,0,1-2.79,2.79h-59.3a2.79,2.79,0,0,1-2.79-2.79V140.22a2.79,2.79,0,0,1,2.79-2.79h59.3a2.79,2.79,0,0,1,2.79,2.79Z"/><path id="Trazado_701" data-name="Trazado 701" class="cls-1" d="M247.37,65.22a5.94,5.94,0,0,0-.8-3L225.19,4A6,6,0,0,0,219.53,0H27.74a6,6,0,0,0-5.66,4L.37,63.14A6,6,0,0,0,.06,66V84.9a25.58,25.58,0,0,0,14.55,23v97.77a6.79,6.79,0,0,0,6.79,6.79H226.61a6.79,6.79,0,0,0,6.79-6.79v-98.1A25.58,25.58,0,0,0,247.28,84.9V65.69c0-.16.1-.29.1-.46M32,12.07H215.32l17.3,47.12H14.69ZM89.14,198.91H55V142.37a5,5,0,0,1,5-5H84.17a5,5,0,0,1,5,5Zm12,0V142.37a17,17,0,0,0-17-17H60a17,17,0,0,0-17,17h0v56.54H28.17V110.34A25.63,25.63,0,0,0,50.06,92.42a25.57,25.57,0,0,0,49-.46,25.55,25.55,0,0,0,49.19-.26,25.56,25.56,0,0,0,49,.83,25.6,25.6,0,0,0,22.53,17.84v88.52ZM221.7,98.42A13.54,13.54,0,0,1,208.2,85v-.08a11,11,0,1,0-22-.08v.08a5.42,5.42,0,0,0,.14.7A13.48,13.48,0,0,1,159.37,85v0a11,11,0,0,0-21.83-2,6,6,0,0,0-.41,2,13.52,13.52,0,1,1-27,.06V84.9a11,11,0,0,0-21.94-.83,5.82,5.82,0,0,0-.17.83A13.51,13.51,0,0,1,61,85V84.9a11,11,0,0,0-22,0c0,.17.09.32.1.49a13.49,13.49,0,0,1-27-.49V71.26H235.16V84.9a13.55,13.55,0,0,1-13.55,13.51"/></g></svg>