<svg id="Capa_1" data-name="Capa 1" xmlns="http://www.w3.org/2000/svg" viewBox="0 0 237.57 163.39"><defs><style>.cls-1{fill:#f58220;}</style></defs><title>icnos</title><path id="Trazado_2897" data-name="Trazado 2897" class="cls-1" d="M136.06,0h59.81c40,0,41.68,27.9,41.68,36a39.48,39.48,0,0,1-22.69,37,1,1,0,0,0-.79,1.21.91.91,0,0,0,.12.31c0,.16.17.33.33.5,20.34,8.4,19.5,32.27,19.5,32.27,0,43.54-38,56.14-57.82,56.14H113.32c-9.75,0-10.59-6.38-9.75-13.95L122.92,13.3C123.92-1,136,0,136,0ZM188,30.94H154.89L150.17,62h32.27s18.32-.84,18.32-18.66a11.87,11.87,0,0,0-11.25-12.46,11,11,0,0,0-1.52,0Zm-7.92,59.5H146.14L140.42,132h34.12a22.77,22.77,0,0,0,23.71-21.8,20.93,20.93,0,0,0,0-2.24S200.44,92.12,180.08,90.44ZM54.36.18h50.26a3.86,3.86,0,0,1,3.36,4l-2.2,16A14.8,14.8,0,0,1,91.17,31.26H39.75s-3,.51-2-5l1.84-13.11A15.08,15.08,0,0,1,54.36.18Zm-37,65.22h78a3.74,3.74,0,0,1,3.36,4L96.89,84.05S94.2,96.34,83.77,96.34H2.08s-2.52,0-2-3.51l2-14.63c.17,0,3.7-12.75,15.3-12.75ZM36,131.29H86.3a3.34,3.34,0,0,1,3.06,3.6,2,2,0,0,1,0,.26v.33l-2.2,15.13s-2.69,11.94-13.94,11.94H21.58s-3.51.33-2.52-5.22l2.36-14.28C21.42,142.88,26.12,131.29,36,131.29Z"/></svg>