<svg id="Layer_1" data-name="Layer 1" xmlns="http://www.w3.org/2000/svg" viewBox="0 0 70.73 69.29"><defs><style>.cls-1{fill:#c4161c;}</style></defs><title>icono_icbc</title><path class="cls-1" d="M48.48,47.69v-5.2H38.11V26.92H48.48V21.73H36.84V16.54H53.67V32.12H43.32v5.19H53.67V52.86H36.84V47.69Zm-41.55-13A28.54,28.54,0,1,1,35.46,63.26,28.53,28.53,0,0,1,6.93,34.72ZM35.46,68.49A33.76,33.76,0,1,0,1.7,34.72,33.76,33.76,0,0,0,35.46,68.49ZM34.21,21.72V16.53H17.37V32.11H27.7v5.2H17.37V52.86H34.21V47.68H22.56v-5.2H32.93V26.9H22.56V21.72Z"/></svg>